_Griffith_Gothic-Condensed_Bold_WebTT.ufo
<glyph name="exclam" format="1">
  <advance width="442.368"/>
  <unicode hex="0021"/>
  <outline>
    <contour>
      <point x="221" y="223" type="qcurve" smooth="yes"/>
      <point x="271.746268657" y="223.0"/>
      <point x="340.0" y="154.746268657"/>
      <point x="340" y="104" type="qcurve" smooth="yes"/>
      <point x="340.0" y="52.5074626866"/>
      <point x="271.746268657" y="-14.0"/>
      <point x="221" y="-14" type="qcurve" smooth="yes"/>
      <point x="171.0" y="-14.0"/>
      <point x="102.0" y="52.5074626866"/>
      <point x="102" y="104" type="qcurve" smooth="yes"/>
      <point x="102.0" y="154.746268657"/>
      <point x="171.0" y="223.0"/>
    </contour>
    <contour>
      <point x="104" y="1475" type="line"/>
      <point x="338" y="1475" type="line"/>
      <point x="274" y="412" type="line"/>
      <point x="168" y="412" type="line"/>
    </contour>
  </outline>
</glyph>
<glyph name="quotedbl" format="1">
  <advance width="645.12"/>
  <unicode hex="0022"/>
  <outline>
    <contour>
      <point x="74" y="1475" type="line"/>
      <point x="268" y="1475" type="line"/>
      <point x="217" y="983" type="line"/>
      <point x="125" y="983" type="line"/>
    </contour>
    <contour>
      <point x="377" y="1475" type="line"/>
      <point x="569" y="1475" type="line"/>
      <point x="518" y="983" type="line"/>
      <point x="428" y="983" type="line"/>
    </contour>
  </outline>
</glyph>
<glyph name="ampersand" format="1">
  <advance width="1134.592"/>
  <unicode hex="0026"/>
  <outline>
    <contour>
      <point x="1128" y="152" type="qcurve"/>
      <point x="1128" y="6" type="line"/>
      <point x="1101.13432836" y="-2.9552238806"/>
      <point x="1052.08955224" y="-12.0"/>
      <point x="1020" y="-12" type="qcurve" smooth="yes"/>
      <point x="943.880597015" y="-12.0"/>
      <point x="820.149253731" y="47.6865671642"/>
      <point x="750" y="135" type="qcurve"/>
      <point x="679.104477612" y="60.3731343284"/>
      <point x="520.805970149" y="-20.0"/>
      <point x="432" y="-20" type="qcurve" smooth="yes"/>
      <point x="255.134328358" y="-20.0"/>
      <point x="45.0" y="202.940298507"/>
      <point x="45" y="391" type="qcurve" smooth="yes"/>
      <point x="45.0" y="526.820895522"/>
      <point x="170.701492537" y="744.23880597"/>
      <point x="311" y="842" type="qcurve"/>
      <point x="262.492537313" y="935.28358209"/>
      <point x="209.0" y="1103.70149254"/>
      <point x="209" y="1194" type="qcurve" smooth="yes"/>
      <point x="209.0" y="1323.85074627"/>
      <point x="363.432835821" y="1499.0"/>
      <point x="500" y="1499" type="qcurve" smooth="yes"/>
      <point x="628.358208955" y="1499.0"/>
      <point x="752.0" y="1334.19402985"/>
      <point x="752" y="1223" type="qcurve" smooth="yes"/>
      <point x="752.0" y="1093.14925373"/>
      <point x="627.432835821" y="908.850746269"/>
      <point x="514" y="829" type="qcurve"/>
      <point x="593.850746269" y="685.71641791"/>
      <point x="714.746268657" y="472.880597015"/>
      <point x="764" y="399" type="qcurve"/>
      <point x="808.029850746" y="484.820895522"/>
      <point x="890.417910448" y="704.880597015"/>
      <point x="924" y="831" type="qcurve"/>
      <point x="1067" y="760" type="line"/>
      <point x="1024.46268657" y="610.0"/>
      <point x="919.701492537" y="362.776119403"/>
      <point x="860" y="268" type="qcurve"/>
      <point x="918.208955224" y="187.402985075"/>
      <point x="995.462686567" y="135.0"/>
      <point x="1038" y="135" type="qcurve" smooth="yes"/>
      <point x="1068.59701493" y="135.0"/>
      <point x="1104.11940299" y="142.298507463"/>
    </contour>
    <contour>
      <point x="463" y="131" type="qcurve" smooth="yes"/>
      <point x="518.223880597" y="131.0"/>
      <point x="617.223880597" y="192.268656716"/>
      <point x="662" y="246" type="qcurve"/>
      <point x="605.28358209" y="329.582089552"/>
      <point x="463.835820896" y="565.029850746"/>
      <point x="381" y="721" type="qcurve"/>
      <point x="298.164179104" y="653.835820896"/>
      <point x="229.0" y="509.820895522"/>
      <point x="229" y="424" type="qcurve" smooth="yes"/>
      <point x="229.0" y="306.089552239"/>
      <point x="352.552238806" y="131.0"/>
    </contour>
    <contour>
      <point x="444" y="928" type="qcurve"/>
      <point x="528.328358209" y="993.671641791"/>
      <point x="600.0" y="1130.3880597"/>
      <point x="600" y="1208" type="qcurve" smooth="yes"/>
      <point x="600.0" y="1283.37313433"/>
      <point x="543.014925373" y="1378.0"/>
      <point x="496" y="1378" type="qcurve" smooth="yes"/>
      <point x="433.313432836" y="1378.0"/>
      <point x="369.0" y="1275.13432836"/>
      <point x="369" y="1202" type="qcurve" smooth="yes"/>
      <point x="369.0" y="1137.82089552"/>
      <point x="405.940298507" y="1005.6119403"/>
    </contour>
  </outline>
</glyph>
<glyph name="quotesingle" format="1">
  <advance width="346.112"/>
  <unicode hex="0027"/>
  <outline>
    <contour>
      <point x="74" y="1475" type="line"/>
      <point x="270" y="1475" type="line"/>
      <point x="221" y="983" type="line"/>
      <point x="125" y="983" type="line"/>
    </contour>
  </outline>
</glyph>
<glyph name="parenleft" format="1">
  <advance width="561.152"/>
  <unicode hex="0028"/>
  <outline>
    <contour>
      <point x="272" y="655" type="qcurve" smooth="yes"/>
      <point x="272.0" y="409.47761194"/>
      <point x="400.119402985" y="-6.94029850746"/>
      <point x="524" y="-195" type="qcurve"/>
      <point x="367" y="-195" type="line"/>
      <point x="253.567164179" y="-46.4925373134"/>
      <point x="80.0" y="372.164179104"/>
      <point x="80" y="655" type="qcurve" smooth="yes"/>
      <point x="80.0" y="937.835820896"/>
      <point x="253.567164179" y="1357.23880597"/>
      <point x="367" y="1505" type="qcurve"/>
      <point x="524" y="1505" type="line"/>
      <point x="400.119402985" y="1316.94029851"/>
      <point x="272.0" y="901.268656716"/>
    </contour>
  </outline>
</glyph>
<glyph name="asterisk" format="1">
  <advance width="675.84"/>
  <unicode hex="002A"/>
  <outline>
    <contour>
      <point x="580" y="1360" type="line"/>
      <point x="627" y="1219" type="line"/>
      <point x="389" y="1188" type="line"/>
      <point x="569" y="1022" type="line"/>
      <point x="446" y="932" type="line"/>
      <point x="338" y="1155" type="line"/>
      <point x="229" y="932" type="line"/>
      <point x="106" y="1022" type="line"/>
      <point x="287" y="1188" type="line"/>
      <point x="49" y="1219" type="line"/>
      <point x="96" y="1360" type="line"/>
      <point x="307" y="1239" type="line"/>
      <point x="262" y="1475" type="line"/>
      <point x="414" y="1475" type="line"/>
      <point x="369" y="1239" type="line"/>
    </contour>
  </outline>
</glyph>
<glyph name="slash" format="1">
  <advance width="665.6"/>
  <unicode hex="002F"/>
  <outline>
    <contour>
      <point x="475" y="1505" type="line"/>
      <point x="645" y="1505" type="line"/>
      <point x="143" y="-195" type="line"/>
      <point x="-27" y="-195" type="line"/>
    </contour>
  </outline>
</glyph>
<glyph name="zero" format="1">
  <advance width="991.232"/>
  <unicode hex="0030"/>
  <outline>
    <contour>
      <point x="922" y="858" type="qcurve" smooth="yes"/>
      <point x="922" y="618" type="line" smooth="yes"/>
      <point x="922.0" y="308.298507463"/>
      <point x="688.537313433" y="-25.0"/>
      <point x="496" y="-25" type="qcurve" smooth="yes"/>
      <point x="299.731343284" y="-25.0"/>
      <point x="70.0" y="306.298507463"/>
      <point x="70" y="616" type="qcurve" smooth="yes"/>
      <point x="70" y="856" type="line" smooth="yes"/>
      <point x="70.0" y="1166.44776119"/>
      <point x="299.731343284" y="1499.0"/>
      <point x="496" y="1499" type="qcurve" smooth="yes"/>
      <point x="688.537313433" y="1499.0"/>
      <point x="922.0" y="1166.95522388"/>
    </contour>
    <contour>
      <point x="496" y="135" type="qcurve" smooth="yes"/>
      <point x="608.686567164" y="135.0"/>
      <point x="717.0" y="396.0"/>
      <point x="717" y="596" type="qcurve" smooth="yes"/>
      <point x="717" y="874" type="line" smooth="yes"/>
      <point x="717.0" y="1076.23880597"/>
      <point x="608.686567164" y="1341.0"/>
      <point x="496" y="1341" type="qcurve" smooth="yes"/>
      <point x="382.567164179" y="1341.0"/>
      <point x="272.0" y="1079.0"/>
      <point x="272" y="879" type="qcurve" smooth="yes"/>
      <point x="272" y="600" type="line" smooth="yes"/>
      <point x="272.0" y="398.507462687"/>
      <point x="382.567164179" y="135.0"/>
    </contour>
  </outline>
</glyph>
<glyph name="two" format="1">
  <advance width="911.36"/>
  <unicode hex="0032"/>
  <outline>
    <contour>
      <point x="838" y="162" type="line"/>
      <point x="838" y="0" type="line"/>
      <point x="74" y="0" type="line"/>
      <point x="74" y="131" type="line"/>
      <point x="115.044776119" y="297.417910448"/>
      <point x="273.552238806" y="546.268656716"/>
      <point x="434" y="700" type="qcurve" smooth="yes"/>
      <point x="536.23880597" y="796.268656716"/>
      <point x="629.0" y="971.104477612"/>
      <point x="629" y="1092" type="qcurve" smooth="yes"/>
      <point x="629.0" y="1198.71641791"/>
      <point x="544.074626866" y="1335.0"/>
      <point x="459" y="1335" type="qcurve" smooth="yes"/>
      <point x="377.656716418" y="1335.0"/>
      <point x="273.298507463" y="1203.7761194"/>
      <point x="233" y="1059" type="qcurve"/>
      <point x="63" y="1116" type="line"/>
      <point x="113.746268657" y="1313.01492537"/>
      <point x="313.0" y="1499.0"/>
      <point x="463" y="1499" type="qcurve" smooth="yes"/>
      <point x="646.582089552" y="1499.0"/>
      <point x="827.0" y="1267.88059701"/>
      <point x="827" y="1094" type="qcurve" smooth="yes"/>
      <point x="827.0" y="914.895522388"/>
      <point x="670.910447761" y="686.208955224"/>
      <point x="553" y="578" type="qcurve" smooth="yes"/>
      <point x="436.582089552" y="469.044776119"/>
      <point x="305.865671642" y="270.208955224"/>
      <point x="279" y="162" type="qcurve"/>
    </contour>
  </outline>
</glyph>
<glyph name="three" format="1">
  <advance width="868.352"/>
  <unicode hex="0033"/>
  <outline>
    <contour>
      <point x="496" y="821" type="line"/>
      <point x="630.328358209" y="833.686567164"/>
      <point x="815.0" y="675.432835821"/>
      <point x="815" y="512" type="qcurve" smooth="yes"/>
      <point x="815.0" y="265.731343284"/>
      <point x="377.985074627" y="-12.9850746269"/>
      <point x="25" y="-10" type="qcurve"/>
      <point x="25" y="152" type="line"/>
      <point x="309.328358209" y="154.985074627"/>
      <point x="608.0" y="348.567164179"/>
      <point x="608" y="512" type="qcurve" smooth="yes"/>
      <point x="608.0" y="612.746268657"/>
      <point x="519.343283582" y="711.0"/>
      <point x="438" y="711" type="qcurve" smooth="yes"/>
      <point x="393.970149254" y="711.0"/>
      <point x="317.567164179" y="693.432835821"/>
      <point x="281" y="680" type="qcurve"/>
      <point x="233" y="819" type="line"/>
      <point x="397.179104478" y="894.373134328"/>
      <point x="553.0" y="1051.26865672"/>
      <point x="553" y="1155" type="qcurve" smooth="yes"/>
      <point x="553.0" y="1239.32835821"/>
      <point x="473.895522388" y="1339.0"/>
      <point x="403" y="1339" type="qcurve" smooth="yes"/>
      <point x="335.835820896" y="1339.0"/>
      <point x="226.23880597" y="1250.31343284"/>
      <point x="174" y="1163" type="qcurve"/>
      <point x="59" y="1262" type="line"/>
      <point x="121.686567164" y="1367.2238806"/>
      <point x="300.656716418" y="1501.0"/>
      <point x="432" y="1501" type="qcurve" smooth="yes"/>
      <point x="584.985074627" y="1501.0"/>
      <point x="750.0" y="1337.31343284"/>
      <point x="750" y="1200" type="qcurve" smooth="yes"/>
      <point x="750.0" y="1067.1641791"/>
      <point x="605.194029851" y="888.194029851"/>
      <point x="494" y="827" type="qcurve"/>
    </contour>
  </outline>
</glyph>
<glyph name="five" format="1">
  <advance width="907.264"/>
  <unicode hex="0035"/>
  <outline>
    <contour>
      <point x="850" y="522" type="qcurve" smooth="yes"/>
      <point x="850" y="504" type="line" smooth="yes"/>
      <point x="850.0" y="231.611940299"/>
      <point x="585.029850746" y="-20.0"/>
      <point x="391" y="-20" type="qcurve" smooth="yes"/>
      <point x="287.268656716" y="-20.0"/>
      <point x="132.820895522" y="21.2537313433"/>
      <point x="47" y="72" type="qcurve"/>
      <point x="117" y="225" type="line"/>
      <point x="193.119402985" y="179.47761194"/>
      <point x="307.358208955" y="145.0"/>
      <point x="379" y="145" type="qcurve" smooth="yes"/>
      <point x="505.865671642" y="145.0"/>
      <point x="643.0" y="331.343283582"/>
      <point x="643" y="500" type="qcurve" smooth="yes"/>
      <point x="643" y="508" type="line" smooth="yes"/>
      <point x="643.0" y="655.014925373"/>
      <point x="552.791044776" y="805.0"/>
      <point x="461" y="805" type="qcurve" smooth="yes"/>
      <point x="399.805970149" y="805.0"/>
      <point x="309.820895522" y="738.268656716"/>
      <point x="274" y="692" type="qcurve"/>
      <point x="106" y="692" type="line"/>
      <point x="164" y="1475" type="line"/>
      <point x="786" y="1475" type="line"/>
      <point x="786" y="1305" type="line"/>
      <point x="307" y="1305" type="line"/>
      <point x="268" y="827" type="line"/>
      <point x="281" y="827" type="line"/>
      <point x="319.059701493" y="879.23880597"/>
      <point x="434.925373134" y="952.0"/>
      <point x="520" y="952" type="qcurve" smooth="yes"/>
      <point x="668.507462687" y="952.0"/>
      <point x="850.0" y="742.149253731"/>
    </contour>
  </outline>
</glyph>
<glyph name="six" format="1">
  <advance width="944.128"/>
  <unicode hex="0036"/>
  <outline>
    <contour>
      <point x="547" y="934" type="qcurve" smooth="yes"/>
      <point x="693.268656716" y="934.0"/>
      <point x="899.0" y="699.626865672"/>
      <point x="899" y="475" type="qcurve" smooth="yes"/>
      <point x="899.0" y="241.417910448"/>
      <point x="666.044776119" y="-25.0"/>
      <point x="475" y="-25" type="qcurve" smooth="yes"/>
      <point x="283.955223881" y="-25.0"/>
      <point x="63.0" y="247.850746269"/>
      <point x="63" y="518" type="qcurve" smooth="yes"/>
      <point x="63.0" y="794.865671642"/>
      <point x="269.134328358" y="1275.74626866"/>
      <point x="446" y="1475" type="qcurve"/>
      <point x="696" y="1475" type="line"/>
      <point x="523.611940299" y="1307.8358209"/>
      <point x="303.582089552" y="933.462686567"/>
      <point x="270" y="776" type="qcurve"/>
      <point x="281" y="776" type="line"/>
      <point x="323.537313433" y="841.671641791"/>
      <point x="447.746268657" y="934.0"/>
    </contour>
    <contour>
      <point x="481" y="125" type="qcurve" smooth="yes"/>
      <point x="588.462686567" y="125.0"/>
      <point x="696.0" y="313.985074627"/>
      <point x="696" y="461" type="qcurve" smooth="yes"/>
      <point x="696.0" y="605.776119403"/>
      <point x="594.970149254" y="786.0"/>
      <point x="489" y="786" type="qcurve" smooth="yes"/>
      <point x="380.791044776" y="786.0"/>
      <point x="268.0" y="595.328358209"/>
      <point x="268" y="461" type="qcurve" smooth="yes"/>
      <point x="268.0" y="313.985074627"/>
      <point x="374.28358209" y="125.0"/>
    </contour>
  </outline>
</glyph>
<glyph name="eight" format="1">
  <advance width="960.512"/>
  <unicode hex="0038"/>
  <outline>
    <contour>
      <point x="674" y="782" type="line"/>
      <point x="759.074626866" y="751.402985075"/>
      <point x="903.0" y="561.447761194"/>
      <point x="903" y="401" type="qcurve" smooth="yes"/>
      <point x="903.0" y="193.537313433"/>
      <point x="647.656716418" y="-25.0"/>
      <point x="479" y="-25" type="qcurve" smooth="yes"/>
      <point x="311.089552239" y="-25.0"/>
      <point x="57.0" y="189.537313433"/>
      <point x="57" y="397" type="qcurve" smooth="yes"/>
      <point x="57.0" y="558.940298507"/>
      <point x="199.179104478" y="751.402985075"/>
      <point x="285" y="782" type="qcurve"/>
      <point x="285" y="793" type="line"/>
      <point x="211.119402985" y="825.089552239"/>
      <point x="90.0" y="987.164179104"/>
      <point x="90" y="1120" type="qcurve" smooth="yes"/>
      <point x="90.0" y="1291.64179104"/>
      <point x="312.582089552" y="1499.0"/>
      <point x="479" y="1499" type="qcurve" smooth="yes"/>
      <point x="645.417910448" y="1499.0"/>
      <point x="870.0" y="1295.64179104"/>
      <point x="870" y="1124" type="qcurve" smooth="yes"/>
      <point x="870.0" y="992.656716418"/>
      <point x="747.134328358" y="826.582089552"/>
      <point x="674" y="793" type="qcurve"/>
    </contour>
    <contour>
      <point x="479" y="121" type="qcurve" smooth="yes"/>
      <point x="579.746268657" y="121.0"/>
      <point x="700.0" y="272.447761194"/>
      <point x="700" y="412" type="qcurve" smooth="yes"/>
      <point x="700.0" y="555.28358209"/>
      <point x="576.76119403" y="719.0"/>
      <point x="479" y="719" type="qcurve" smooth="yes"/>
      <point x="379.746268657" y="719.0"/>
      <point x="258.0" y="559.28358209"/>
      <point x="258" y="416" type="qcurve" smooth="yes"/>
      <point x="258.0" y="276.447761194"/>
      <point x="376.76119403" y="121.0"/>
    </contour>
    <contour>
      <point x="479" y="846" type="qcurve" smooth="yes"/>
      <point x="567.805970149" y="846.0"/>
      <point x="676.0" y="976.119402985"/>
      <point x="676" y="1100" type="qcurve" smooth="yes"/>
      <point x="676.0" y="1219.40298507"/>
      <point x="575.268656716" y="1354.0"/>
      <point x="479" y="1354" type="qcurve" smooth="yes"/>
      <point x="382.731343284" y="1354.0"/>
      <point x="283.0" y="1218.17910448"/>
      <point x="283" y="1104" type="qcurve" smooth="yes"/>
      <point x="283.0" y="984.597014925"/>
      <point x="390.194029851" y="846.0"/>
    </contour>
  </outline>
</glyph>
<glyph name="semicolon" format="1">
  <advance width="401.408"/>
  <unicode hex="003B"/>
  <outline>
    <contour>
      <point x="205" y="1085" type="qcurve" smooth="yes"/>
      <point x="255.0" y="1085.0"/>
      <point x="324.0" y="1017.0"/>
      <point x="324" y="967" type="qcurve" smooth="yes"/>
      <point x="324.0" y="914.76119403"/>
      <point x="255.0" y="848.0"/>
      <point x="205" y="848" type="qcurve" smooth="yes"/>
      <point x="154.253731343" y="848.0"/>
      <point x="86.0" y="914.76119403"/>
      <point x="86" y="967" type="qcurve" smooth="yes"/>
      <point x="86.0" y="1017.0"/>
      <point x="154.253731343" y="1085.0"/>
    </contour>
    <contour>
      <point x="109" y="240" type="line"/>
      <point x="307" y="240" type="line"/>
      <point x="141" y="-225" type="line"/>
      <point x="51" y="-225" type="line"/>
    </contour>
  </outline>
</glyph>
<glyph name="equal" format="1">
  <advance width="964.608"/>
  <unicode hex="003D"/>
  <outline>
    <contour>
      <point x="879" y="598" type="line"/>
      <point x="879" y="438" type="line"/>
      <point x="86" y="438" type="line"/>
      <point x="86" y="598" type="line"/>
    </contour>
    <contour>
      <point x="879" y="1036" type="line"/>
      <point x="879" y="877" type="line"/>
      <point x="86" y="877" type="line"/>
      <point x="86" y="1036" type="line"/>
    </contour>
  </outline>
</glyph>
<glyph name="B" format="1">
  <advance width="987.136"/>
  <unicode hex="0042"/>
  <outline>
    <contour>
      <point x="664" y="788" type="line"/>
      <point x="785.641791045" y="752.925373134"/>
      <point x="936.0" y="574.925373134"/>
      <point x="936" y="410" type="qcurve" smooth="yes"/>
      <point x="936.0" y="212.23880597"/>
      <point x="690.731343284" y="0.0"/>
      <point x="487" y="0" type="qcurve" smooth="yes"/>
      <point x="111" y="0" type="line"/>
      <point x="111" y="1475" type="line"/>
      <point x="489" y="1475" type="line" smooth="yes"/>
      <point x="674.074626866" y="1475.0"/>
      <point x="889.0" y="1284.41791045"/>
      <point x="889" y="1118" type="qcurve" smooth="yes"/>
      <point x="889.0" y="982.179104478"/>
      <point x="753.552238806" y="829.089552239"/>
      <point x="664" y="797" type="qcurve"/>
    </contour>
    <contour>
      <point x="467" y="143" type="line" smooth="yes"/>
      <point x="589.388059701" y="143.0"/>
      <point x="735.0" y="280.955223881"/>
      <point x="735" y="422" type="qcurve" smooth="yes"/>
      <point x="735.0" y="563.791044776"/>
      <point x="601.805970149" y="717.0"/>
      <point x="463" y="717" type="qcurve" smooth="yes"/>
      <point x="313" y="717" type="line"/>
      <point x="313" y="143" type="line"/>
    </contour>
    <contour>
      <point x="463" y="852" type="line" smooth="yes"/>
      <point x="566.731343284" y="852.0"/>
      <point x="692.0" y="976.119402985"/>
      <point x="692" y="1100" type="qcurve" smooth="yes"/>
      <point x="692.0" y="1214.17910448"/>
      <point x="572.731343284" y="1331.0"/>
      <point x="469" y="1331" type="qcurve" smooth="yes"/>
      <point x="313" y="1331" type="line"/>
      <point x="313" y="852" type="line"/>
    </contour>
  </outline>
</glyph>
<glyph name="C" format="1">
  <advance width="952.32"/>
  <unicode hex="0043"/>
  <outline>
    <contour>
      <point x="713" y="489" type="qcurve"/>
      <point x="903" y="444" type="line"/>
      <point x="870.910447761" y="220.865671642"/>
      <point x="680.328358209" y="-25.0"/>
      <point x="496" y="-25" type="qcurve" smooth="yes"/>
      <point x="303.462686567" y="-25.0"/>
      <point x="72.0" y="320.074626866"/>
      <point x="72" y="635" type="qcurve" smooth="yes"/>
      <point x="72" y="838" type="line" smooth="yes"/>
      <point x="72.0" y="1152.92537313"/>
      <point x="303.462686567" y="1499.0"/>
      <point x="496" y="1499" type="qcurve" smooth="yes"/>
      <point x="678.835820896" y="1499.0"/>
      <point x="866.402985075" y="1256.97014925"/>
      <point x="897" y="1051" type="qcurve"/>
      <point x="700" y="1001" type="line"/>
      <point x="679.104477612" y="1172.64179104"/>
      <point x="585.552238806" y="1339.0"/>
      <point x="496" y="1339" type="qcurve" smooth="yes"/>
      <point x="385.552238806" y="1339.0"/>
      <point x="283.0" y="1071.70149254"/>
      <point x="283" y="862" type="qcurve" smooth="yes"/>
      <point x="283" y="614" type="line" smooth="yes"/>
      <point x="283.0" y="400.567164179"/>
      <point x="391.552238806" y="135.0"/>
      <point x="502" y="135" type="qcurve" smooth="yes"/>
      <point x="590.805970149" y="135.0"/>
      <point x="686.880597015" y="306.164179104"/>
    </contour>
  </outline>
</glyph>
<glyph name="D" format="1">
  <advance width="1009.664"/>
  <unicode hex="0044"/>
  <outline>
    <contour>
      <point x="940" y="831" type="qcurve" smooth="yes"/>
      <point x="940" y="645" type="line" smooth="yes"/>
      <point x="940.0" y="331.567164179"/>
      <point x="670.328358209" y="0.0"/>
      <point x="436" y="0" type="qcurve" smooth="yes"/>
      <point x="111" y="0" type="line"/>
      <point x="111" y="1475" type="line"/>
      <point x="440" y="1475" type="line" smooth="yes"/>
      <point x="674.328358209" y="1475.0"/>
      <point x="940.0" y="1142.94029851"/>
    </contour>
    <contour>
      <point x="430" y="156" type="line" smooth="yes"/>
      <point x="574.029850746" y="156.0"/>
      <point x="729.0" y="385.820895522"/>
      <point x="729" y="600" type="qcurve" smooth="yes"/>
      <point x="729" y="872" type="line" smooth="yes"/>
      <point x="729.0" y="1087.67164179"/>
      <point x="574.507462687" y="1319.0"/>
      <point x="426" y="1319" type="qcurve" smooth="yes"/>
      <point x="319" y="1319" type="line"/>
      <point x="319" y="156" type="line"/>
    </contour>
  </outline>
</glyph>
<glyph name="F" format="1">
  <advance width="827.392"/>
  <unicode hex="0046"/>
  <outline>
    <contour>
      <point x="797" y="1475" type="line"/>
      <point x="797" y="1307" type="line"/>
      <point x="317" y="1307" type="line"/>
      <point x="317" y="811" type="line"/>
      <point x="692" y="811" type="line"/>
      <point x="692" y="647" type="line"/>
      <point x="317" y="647" type="line"/>
      <point x="317" y="0" type="line"/>
      <point x="111" y="0" type="line"/>
      <point x="111" y="1475" type="line"/>
    </contour>
  </outline>
</glyph>
<glyph name="H" format="1">
  <advance width="1028.096"/>
  <unicode hex="0048"/>
  <outline>
    <contour>
      <point x="920" y="1475" type="line"/>
      <point x="920" y="0" type="line"/>
      <point x="709" y="0" type="line"/>
      <point x="709" y="682" type="line"/>
      <point x="319" y="682" type="line"/>
      <point x="319" y="0" type="line"/>
      <point x="111" y="0" type="line"/>
      <point x="111" y="1475" type="line"/>
      <point x="319" y="1475" type="line"/>
      <point x="319" y="852" type="line"/>
      <point x="709" y="852" type="line"/>
      <point x="709" y="1475" type="line"/>
    </contour>
  </outline>
</glyph>
<glyph name="I" format="1">
  <advance width="675.84"/>
  <unicode hex="0049"/>
  <outline>
    <contour>
      <point x="602" y="82" type="line"/>
      <point x="602" y="0" type="line"/>
      <point x="74" y="0" type="line"/>
      <point x="74" y="82" type="line"/>
      <point x="236" y="82" type="line"/>
      <point x="236" y="1393" type="line"/>
      <point x="74" y="1393" type="line"/>
      <point x="74" y="1475" type="line"/>
      <point x="602" y="1475" type="line"/>
      <point x="602" y="1393" type="line"/>
      <point x="440" y="1393" type="line"/>
      <point x="440" y="82" type="line"/>
    </contour>
  </outline>
</glyph>
<glyph name="J" format="1">
  <advance width="849.92"/>
  <unicode hex="004A"/>
  <outline>
    <contour>
      <point x="745" y="1475" type="line"/>
      <point x="745" y="403" type="line" smooth="yes"/>
      <point x="745.0" y="185.089552239"/>
      <point x="548.402985075" y="-25.0"/>
      <point x="379" y="-25" type="qcurve" smooth="yes"/>
      <point x="214.074626866" y="-25.0"/>
      <point x="31.0" y="182.582089552"/>
      <point x="31" y="399" type="qcurve"/>
      <point x="221" y="451" type="line"/>
      <point x="222.492537313" y="279.358208955"/>
      <point x="307.388059701" y="137.0"/>
      <point x="385" y="137" type="qcurve" smooth="yes"/>
      <point x="458.134328358" y="137.0"/>
      <point x="537.0" y="263.179104478"/>
      <point x="537" y="399" type="qcurve" smooth="yes"/>
      <point x="537" y="1475" type="line"/>
    </contour>
  </outline>
</glyph>
<glyph name="K" format="1">
  <advance width="1011.712"/>
  <unicode hex="004B"/>
  <outline>
    <contour>
      <point x="571" y="801" type="line"/>
      <point x="1012" y="0" type="line"/>
      <point x="778" y="0" type="line"/>
      <point x="356" y="788" type="line"/>
      <point x="356" y="793" type="line"/>
      <point x="764" y="1475" type="line"/>
      <point x="989" y="1475" type="line"/>
    </contour>
    <contour>
      <point x="319" y="1475" type="line"/>
      <point x="319" y="0" type="line"/>
      <point x="111" y="0" type="line"/>
      <point x="111" y="1475" type="line"/>
    </contour>
  </outline>
</glyph>
<glyph name="L" format="1">
  <advance width="813.056"/>
  <unicode hex="004C"/>
  <outline>
    <contour>
      <point x="793" y="170" type="line"/>
      <point x="793" y="0" type="line"/>
      <point x="111" y="0" type="line"/>
      <point x="111" y="1475" type="line"/>
      <point x="319" y="1475" type="line"/>
      <point x="319" y="170" type="line"/>
    </contour>
  </outline>
</glyph>
<glyph name="M" format="1">
  <advance width="1390.592"/>
  <unicode hex="004D"/>
  <outline>
    <contour>
      <point x="1282" y="1475" type="line"/>
      <point x="1282" y="0" type="line"/>
      <point x="1085" y="0" type="line"/>
      <point x="1085" y="1235" type="line"/>
      <point x="1075" y="1235" type="line"/>
      <point x="801" y="0" type="line"/>
      <point x="582" y="0" type="line"/>
      <point x="301" y="1235" type="line"/>
      <point x="291" y="1235" type="line"/>
      <point x="291" y="0" type="line"/>
      <point x="111" y="0" type="line"/>
      <point x="111" y="1475" type="line"/>
      <point x="422" y="1475" type="line"/>
      <point x="694" y="262" type="line"/>
      <point x="702" y="262" type="line"/>
      <point x="973" y="1475" type="line"/>
    </contour>
  </outline>
</glyph>
<glyph name="N" format="1">
  <advance width="1042.432"/>
  <unicode hex="004E"/>
  <outline>
    <contour>
      <point x="934" y="1475" type="line"/>
      <point x="934" y="0" type="line"/>
      <point x="733" y="0" type="line"/>
      <point x="291" y="1098" type="line"/>
      <point x="283" y="1098" type="line"/>
      <point x="283" y="0" type="line"/>
      <point x="111" y="0" type="line"/>
      <point x="111" y="1475" type="line"/>
      <point x="326" y="1475" type="line"/>
      <point x="752" y="416" type="line"/>
      <point x="760" y="416" type="line"/>
      <point x="760" y="1475" type="line"/>
    </contour>
  </outline>
</glyph>
<glyph name="O" format="1">
  <advance width="1017.856"/>
  <unicode hex="004F"/>
  <outline>
    <contour>
      <point x="948" y="840" type="qcurve" smooth="yes"/>
      <point x="948" y="637" type="line" smooth="yes"/>
      <point x="948.0" y="322.074626866"/>
      <point x="710.0" y="-25.0"/>
      <point x="510" y="-25" type="qcurve" smooth="yes"/>
      <point x="308.507462687" y="-25.0"/>
      <point x="72.0" y="320.074626866"/>
      <point x="72" y="635" type="qcurve" smooth="yes"/>
      <point x="72" y="838" type="line" smooth="yes"/>
      <point x="72.0" y="1152.92537313"/>
      <point x="308.507462687" y="1499.0"/>
      <point x="510" y="1499" type="qcurve" smooth="yes"/>
      <point x="710.0" y="1499.0"/>
      <point x="948.0" y="1154.92537313"/>
    </contour>
    <contour>
      <point x="510" y="131" type="qcurve" smooth="yes"/>
      <point x="627.910447761" y="131.0"/>
      <point x="737.0" y="391.492537313"/>
      <point x="737" y="590" type="qcurve" smooth="yes"/>
      <point x="737" y="883" type="line" smooth="yes"/>
      <point x="737.0" y="1080.01492537"/>
      <point x="627.910447761" y="1343.0"/>
      <point x="510" y="1343" type="qcurve" smooth="yes"/>
      <point x="392.089552239" y="1343.0"/>
      <point x="283.0" y="1083.50746269"/>
      <point x="283" y="885" type="qcurve" smooth="yes"/>
      <point x="283" y="592" type="line" smooth="yes"/>
      <point x="283.0" y="393.492537313"/>
      <point x="392.089552239" y="131.0"/>
    </contour>
  </outline>
</glyph>
<glyph name="R" format="1">
  <advance width="980.992"/>
  <unicode hex="0052"/>
  <outline>
    <contour>
      <point x="637" y="672" type="qcurve"/>
      <point x="938" y="0" type="line"/>
      <point x="721" y="0" type="line"/>
      <point x="455" y="610" type="line"/>
      <point x="315" y="610" type="line"/>
      <point x="315" y="0" type="line"/>
      <point x="111" y="0" type="line"/>
      <point x="111" y="1475" type="line"/>
      <point x="453" y="1475" type="line" smooth="yes"/>
      <point x="663.447761194" y="1475.0"/>
      <point x="903.0" y="1263.44776119"/>
      <point x="903" y="1053" type="qcurve" smooth="yes"/>
      <point x="903.0" y="892.552238806"/>
      <point x="754.910447761" y="702.597014925"/>
    </contour>
    <contour>
      <point x="453" y="756" type="line" smooth="yes"/>
      <point x="573.149253731" y="756.0"/>
      <point x="700.0" y="897.701492537"/>
      <point x="700" y="1038" type="qcurve" smooth="yes"/>
      <point x="700.0" y="1176.05970149"/>
      <point x="573.626865672" y="1319.0"/>
      <point x="449" y="1319" type="qcurve" smooth="yes"/>
      <point x="315" y="1319" type="line"/>
      <point x="315" y="756" type="line"/>
    </contour>
  </outline>
</glyph>
<glyph name="T" format="1">
  <advance width="944.128"/>
  <unicode hex="0054"/>
  <outline>
    <contour>
      <point x="911" y="1475" type="line"/>
      <point x="911" y="1307" type="line"/>
      <point x="575" y="1307" type="line"/>
      <point x="575" y="0" type="line"/>
      <point x="369" y="0" type="line"/>
      <point x="369" y="1307" type="line"/>
      <point x="33" y="1307" type="line"/>
      <point x="33" y="1475" type="line"/>
    </contour>
  </outline>
</glyph>
<glyph name="U" format="1">
  <advance width="1015.808"/>
  <unicode hex="0055"/>
  <outline>
    <contour>
      <point x="913" y="1475" type="line"/>
      <point x="913" y="461" type="line" smooth="yes"/>
      <point x="913.0" y="204.28358209"/>
      <point x="691.582089552" y="-25.0"/>
      <point x="508" y="-25" type="qcurve" smooth="yes"/>
      <point x="324.417910448" y="-25.0"/>
      <point x="102.0" y="206.28358209"/>
      <point x="102" y="463" type="qcurve" smooth="yes"/>
      <point x="102" y="1475" type="line"/>
      <point x="313" y="1475" type="line"/>
      <point x="313" y="440" type="line" smooth="yes"/>
      <point x="313.0" y="282.537313433"/>
      <point x="422.208955224" y="135.0"/>
      <point x="514" y="135" type="qcurve" smooth="yes"/>
      <point x="605.791044776" y="135.0"/>
      <point x="715.0" y="278.537313433"/>
      <point x="715" y="436" type="qcurve" smooth="yes"/>
      <point x="715" y="1475" type="line"/>
    </contour>
  </outline>
</glyph>
<glyph name="V" format="1">
  <advance width="1019.904"/>
  <unicode hex="0056"/>
  <outline>
    <contour>
      <point x="788" y="1475" type="line"/>
      <point x="999" y="1475" type="line"/>
      <point x="639" y="-12" type="line"/>
      <point x="389" y="-12" type="line"/>
      <point x="33" y="1475" type="line"/>
      <point x="252" y="1475" type="line"/>
      <point x="514" y="260" type="line"/>
      <point x="524" y="260" type="line"/>
    </contour>
  </outline>
</glyph>
<glyph name="W" format="1">
  <advance width="1570.816"/>
  <unicode hex="0057"/>
  <outline>
    <contour>
      <point x="1331" y="1475" type="line"/>
      <point x="1534" y="1475" type="line"/>
      <point x="1264" y="-10" type="line"/>
      <point x="1004" y="-10" type="line"/>
      <point x="791" y="1206" type="line"/>
      <point x="778" y="1206" type="line"/>
      <point x="567" y="-10" type="line"/>
      <point x="307" y="-10" type="line"/>
      <point x="37" y="1475" type="line"/>
      <point x="246" y="1475" type="line"/>
      <point x="442" y="250" type="line"/>
      <point x="453" y="250" type="line"/>
      <point x="653" y="1475" type="line"/>
      <point x="922" y="1475" type="line"/>
      <point x="1124" y="250" type="line"/>
      <point x="1135" y="250" type="line"/>
    </contour>
  </outline>
</glyph>
<glyph name="Y" format="1">
  <advance width="1011.712"/>
  <unicode hex="0059"/>
  <outline>
    <contour>
      <point x="791" y="1475" type="line"/>
      <point x="991" y="1475" type="line"/>
      <point x="610" y="580" type="line"/>
      <point x="610" y="0" type="line"/>
      <point x="401" y="0" type="line"/>
      <point x="401" y="575" type="line"/>
      <point x="18" y="1475" type="line"/>
      <point x="244" y="1475" type="line"/>
      <point x="518" y="778" type="line"/>
    </contour>
  </outline>
</glyph>
<glyph name="bracketleft" format="1">
  <advance width="602.112"/>
  <unicode hex="005B"/>
  <outline>
    <contour>
      <point x="563" y="-68" type="line"/>
      <point x="563" y="-164" type="line"/>
      <point x="117" y="-182" type="line"/>
      <point x="117" y="1493" type="line"/>
      <point x="563" y="1475" type="line"/>
      <point x="563" y="1378" type="line"/>
      <point x="289" y="1391" type="line"/>
      <point x="289" y="-80" type="line"/>
    </contour>
  </outline>
</glyph>
<glyph name="bracketright" format="1">
  <advance width="602.112"/>
  <unicode hex="005D"/>
  <outline>
    <contour>
      <point x="483" y="1493" type="line"/>
      <point x="483" y="-182" type="line"/>
      <point x="39" y="-164" type="line"/>
      <point x="39" y="-68" type="line"/>
      <point x="313" y="-80" type="line"/>
      <point x="313" y="1391" type="line"/>
      <point x="39" y="1378" type="line"/>
      <point x="39" y="1475" type="line"/>
    </contour>
  </outline>
</glyph>
<glyph name="grave" format="1">
  <advance width="806.912"/>
  <unicode hex="0060"/>
  <outline>
    <contour>
      <point x="426" y="1444" type="line"/>
      <point x="565" y="1186" type="line"/>
      <point x="434" y="1186" type="line"/>
      <point x="201" y="1444" type="line"/>
    </contour>
  </outline>
</glyph>
<glyph name="c" format="1">
  <advance width="765.952"/>
  <unicode hex="0063"/>
  <outline>
    <contour>
      <point x="565" y="334" type="qcurve"/>
      <point x="725" y="297" type="line"/>
      <point x="698.880597015" y="151.47761194"/>
      <point x="543.313432836" y="-20.0"/>
      <point x="406" y="-20" type="qcurve" smooth="yes"/>
      <point x="244.805970149" y="-20.0"/>
      <point x="57.0" y="251.388059701"/>
      <point x="57" y="479" type="qcurve" smooth="yes"/>
      <point x="57" y="592" type="line" smooth="yes"/>
      <point x="57.0" y="818.119402985"/>
      <point x="252.029850746" y="1094.0"/>
      <point x="408" y="1094" type="qcurve" smooth="yes"/>
      <point x="551.28358209" y="1094.0"/>
      <point x="699.865671642" y="909.313432836"/>
      <point x="723" y="772" type="qcurve"/>
      <point x="555" y="735" type="line"/>
      <point x="536.343283582" y="843.955223881"/>
      <point x="471.194029851" y="954.0"/>
      <point x="410" y="954" type="qcurve" smooth="yes"/>
      <point x="337.611940299" y="954.0"/>
      <point x="254.0" y="770.925373134"/>
      <point x="254" y="606" type="qcurve" smooth="yes"/>
      <point x="254" y="469" type="line" smooth="yes"/>
      <point x="254.0" y="304.074626866"/>
      <point x="340.626865672" y="119.0"/>
      <point x="416" y="119" type="qcurve" smooth="yes"/>
      <point x="470.47761194" y="119.0"/>
      <point x="547.089552239" y="225.044776119"/>
    </contour>
  </outline>
</glyph>
<glyph name="e" format="1">
  <advance width="806.912"/>
  <unicode hex="0065"/>
  <outline>
    <contour>
      <point x="752" y="549" type="qcurve" smooth="yes"/>
      <point x="752" y="492" type="line"/>
      <point x="246" y="492" type="line"/>
      <point x="246" y="463" type="line" smooth="yes"/>
      <point x="246.0" y="298.074626866"/>
      <point x="362.76119403" y="133.0"/>
      <point x="465" y="133" type="qcurve" smooth="yes"/>
      <point x="524.701492537" y="133.0"/>
      <point x="645.52238806" y="185.985074627"/>
      <point x="700" y="233" type="qcurve"/>
      <point x="754" y="104" type="line"/>
      <point x="686.835820896" y="49.5223880597"/>
      <point x="529.76119403" y="-18.0"/>
      <point x="432" y="-18" type="qcurve" smooth="yes"/>
      <point x="261.104477612" y="-18.0"/>
      <point x="57.0" y="239.447761194"/>
      <point x="57" y="479" type="qcurve" smooth="yes"/>
      <point x="57" y="592" type="line" smooth="yes"/>
      <point x="57.0" y="821.104477612"/>
      <point x="250.059701493" y="1094.0"/>
      <point x="412" y="1094" type="qcurve" smooth="yes"/>
      <point x="573.940298507" y="1094.0"/>
      <point x="752.0" y="798.253731343"/>
    </contour>
    <contour>
      <point x="246" y="588" type="line"/>
      <point x="569" y="588" type="line"/>
      <point x="566.014925373" y="769.343283582"/>
      <point x="483.641791045" y="965.0"/>
      <point x="412" y="965" type="qcurve" smooth="yes"/>
      <point x="332.149253731" y="965.0"/>
      <point x="246.0" y="774.089552239"/>
      <point x="246" y="592" type="qcurve" smooth="yes"/>
    </contour>
  </outline>
</glyph>
<glyph name="f" format="1">
  <advance width="567.296"/>
  <unicode hex="0066"/>
  <outline>
    <contour>
      <point x="596" y="1530" type="qcurve"/>
      <point x="596" y="1389" type="line"/>
      <point x="568.388059701" y="1402.43283582"/>
      <point x="517.567164179" y="1417.0"/>
      <point x="481" y="1417" type="qcurve" smooth="yes"/>
      <point x="429.507462687" y="1417.0"/>
      <point x="367.0" y="1350.11940299"/>
      <point x="367" y="1274" type="qcurve" smooth="yes"/>
      <point x="367" y="1067" type="line"/>
      <point x="555" y="1067" type="line"/>
      <point x="555" y="930" type="line"/>
      <point x="367" y="930" type="line"/>
      <point x="367" y="0" type="line"/>
      <point x="172" y="0" type="line"/>
      <point x="172" y="930" type="line"/>
      <point x="16" y="930" type="line"/>
      <point x="16" y="1067" type="line"/>
      <point x="172" y="1067" type="line"/>
      <point x="172" y="1286" type="line" smooth="yes"/>
      <point x="172.0" y="1418.8358209"/>
      <point x="308.089552239" y="1554.0"/>
      <point x="426" y="1554" type="qcurve" smooth="yes"/>
      <point x="488.686567164" y="1554.0"/>
      <point x="560.925373134" y="1541.94029851"/>
    </contour>
  </outline>
</glyph>
<glyph name="h" format="1">
  <advance width="854.016"/>
  <unicode hex="0068"/>
  <outline>
    <contour>
      <point x="766" y="854" type="qcurve" smooth="yes"/>
      <point x="766" y="0" type="line"/>
      <point x="567" y="0" type="line"/>
      <point x="567" y="809" type="line" smooth="yes"/>
      <point x="567.0" y="873.179104478"/>
      <point x="523.268656716" y="932.0"/>
      <point x="477" y="932" type="qcurve" smooth="yes"/>
      <point x="432.970149254" y="932.0"/>
      <point x="336.52238806" y="854.865671642"/>
      <point x="291" y="778" type="qcurve"/>
      <point x="291" y="0" type="line"/>
      <point x="92" y="0" type="line"/>
      <point x="92" y="1509" type="line"/>
      <point x="291" y="1554" type="line"/>
      <point x="291" y="872" type="line"/>
      <point x="299" y="872" type="line"/>
      <point x="367.656716418" y="973.492537313"/>
      <point x="499.671641791" y="1085.0"/>
      <point x="584" y="1085" type="qcurve" smooth="yes"/>
      <point x="672.059701493" y="1085.0"/>
      <point x="766.0" y="962.208955224"/>
    </contour>
  </outline>
</glyph>
<glyph name="i" format="1">
  <advance width="403.456"/>
  <unicode hex="0069"/>
  <outline>
    <contour>
      <point x="301" y="1073" type="line"/>
      <point x="301" y="0" type="line"/>
      <point x="102" y="0" type="line"/>
      <point x="102" y="1073" type="line"/>
    </contour>
    <contour>
      <point x="307" y="1475" type="line"/>
      <point x="307" y="1282" type="line"/>
      <point x="96" y="1282" type="line"/>
      <point x="96" y="1475" type="line"/>
    </contour>
  </outline>
</glyph>
<glyph name="j" format="1">
  <advance width="405.504"/>
  <unicode hex="006A"/>
  <outline>
    <contour>
      <point x="303" y="1073" type="line"/>
      <point x="303" y="-125" type="line" smooth="yes"/>
      <point x="303.0" y="-266.791044776"/>
      <point x="175.417910448" y="-389.0"/>
      <point x="59" y="-389" type="qcurve" smooth="yes"/>
      <point x="16.4626865672" y="-389.0"/>
      <point x="-43.4029850746" y="-379.955223881"/>
      <point x="-74" y="-371" type="qcurve"/>
      <point x="-74" y="-242" type="line"/>
      <point x="-53.8507462687" y="-250.955223881"/>
      <point x="-13.6119402985" y="-260.0"/>
      <point x="14" y="-260" type="qcurve" smooth="yes"/>
      <point x="54.2985074627" y="-260.0"/>
      <point x="104.0" y="-204.194029851"/>
      <point x="104" y="-143" type="qcurve" smooth="yes"/>
      <point x="104" y="1073" type="line"/>
    </contour>
    <contour>
      <point x="309" y="1475" type="line"/>
      <point x="309" y="1282" type="line"/>
      <point x="98" y="1282" type="line"/>
      <point x="98" y="1475" type="line"/>
    </contour>
  </outline>
</glyph>
<glyph name="p" format="1">
  <advance width="874.496"/>
  <unicode hex="0070"/>
  <outline>
    <contour>
      <point x="815" y="571" type="qcurve" smooth="yes"/>
      <point x="815" y="504" type="line" smooth="yes"/>
      <point x="815.0" y="242.805970149"/>
      <point x="650.701492537" y="-18.0"/>
      <point x="541" y="-18" type="qcurve" smooth="yes"/>
      <point x="462.641791045" y="-18.0"/>
      <point x="343.029850746" y="98.4179104478"/>
      <point x="299" y="182" type="qcurve"/>
      <point x="291" y="182" type="line"/>
      <point x="291" y="-385" type="line"/>
      <point x="92" y="-385" type="line"/>
      <point x="92" y="1047" type="line"/>
      <point x="291" y="1092" type="line"/>
      <point x="291" y="881" type="line"/>
      <point x="299" y="881" type="line"/>
      <point x="344.52238806" y="970.552238806"/>
      <point x="462.164179104" y="1092.0"/>
      <point x="545" y="1092" type="qcurve" smooth="yes"/>
      <point x="656.194029851" y="1092.0"/>
      <point x="815.0" y="834.432835821"/>
    </contour>
    <contour>
      <point x="465" y="125" type="qcurve" smooth="yes"/>
      <point x="532.164179104" y="125.0"/>
      <point x="621.0" y="324.313432836"/>
      <point x="621" y="537" type="qcurve" smooth="yes"/>
      <point x="621.0" y="756.402985075"/>
      <point x="529.656716418" y="950.0"/>
      <point x="461" y="950" type="qcurve" smooth="yes"/>
      <point x="387.119402985" y="950.0"/>
      <point x="281.0" y="719.835820896"/>
      <point x="281" y="537" type="qcurve" smooth="yes"/>
      <point x="281.0" y="354.910447761"/>
      <point x="386.641791045" y="125.0"/>
    </contour>
  </outline>
</glyph>
<glyph name="q" format="1">
  <advance width="874.496"/>
  <unicode hex="0071"/>
  <outline>
    <contour>
      <point x="782" y="1047" type="line"/>
      <point x="782" y="-385" type="line"/>
      <point x="584" y="-385" type="line"/>
      <point x="584" y="193" type="line"/>
      <point x="575" y="193" type="line"/>
      <point x="527.985074627" y="102.701492537"/>
      <point x="412.089552239" y="-18.0"/>
      <point x="330" y="-18" type="qcurve" smooth="yes"/>
      <point x="218.059701493" y="-18.0"/>
      <point x="57.0" y="240.805970149"/>
      <point x="57" y="502" type="qcurve" smooth="yes"/>
      <point x="57" y="571" type="line" smooth="yes"/>
      <point x="57.0" y="831.447761194"/>
      <point x="223.552238806" y="1092.0"/>
      <point x="334" y="1092" type="qcurve" smooth="yes"/>
      <point x="411.611940299" y="1092.0"/>
      <point x="530.970149254" y="975.328358209"/>
      <point x="575" y="891" type="qcurve"/>
      <point x="584" y="891" type="line"/>
      <point x="584" y="1092" type="line"/>
    </contour>
    <contour>
      <point x="414" y="125" type="qcurve" smooth="yes"/>
      <point x="487.134328358" y="125.0"/>
      <point x="594.0" y="353.417910448"/>
      <point x="594" y="537" type="qcurve" smooth="yes"/>
      <point x="594.0" y="719.835820896"/>
      <point x="487.611940299" y="950.0"/>
      <point x="410" y="950" type="qcurve" smooth="yes"/>
      <point x="342.089552239" y="950.0"/>
      <point x="254.0" y="750.940298507"/>
      <point x="254" y="539" type="qcurve" smooth="yes"/>
      <point x="254.0" y="318.850746269"/>
      <point x="345.343283582" y="125.0"/>
    </contour>
  </outline>
</glyph>
<glyph name="s" format="1">
  <advance width="704.512"/>
  <unicode hex="0073"/>
  <outline>
    <contour>
      <point x="395" y="637" type="qcurve" smooth="yes"/>
      <point x="533.059701493" y="572.820895522"/>
      <point x="659.0" y="413.388059701"/>
      <point x="659" y="291" type="qcurve" smooth="yes"/>
      <point x="659.0" y="141.0"/>
      <point x="481.850746269" y="-18.0"/>
      <point x="352" y="-18" type="qcurve" smooth="yes"/>
      <point x="245.28358209" y="-18.0"/>
      <point x="85.4776119403" y="78.6567164179"/>
      <point x="31" y="160" type="qcurve"/>
      <point x="139" y="270" type="line"/>
      <point x="189.746268657" y="198.358208955"/>
      <point x="296.298507463" y="123.0"/>
      <point x="356" y="123" type="qcurve" smooth="yes"/>
      <point x="418.686567164" y="123.0"/>
      <point x="496.0" y="203.313432836"/>
      <point x="496" y="266" type="qcurve" smooth="yes"/>
      <point x="496.0" y="331.671641791"/>
      <point x="423.47761194" y="413.746268657"/>
      <point x="319" y="463" type="qcurve" smooth="yes"/>
      <point x="184.671641791" y="525.686567164"/>
      <point x="61.0" y="682.074626866"/>
      <point x="61" y="797" type="qcurve" smooth="yes"/>
      <point x="61.0" y="931.328358209"/>
      <point x="228.119402985" y="1092.0"/>
      <point x="352" y="1092" type="qcurve" smooth="yes"/>
      <point x="446.776119403" y="1092.0"/>
      <point x="587.268656716" y="1011.13432836"/>
      <point x="641" y="938" type="qcurve"/>
      <point x="532" y="827" type="line"/>
      <point x="486.47761194" y="891.179104478"/>
      <point x="398.746268657" y="950.0"/>
      <point x="348" y="950" type="qcurve" smooth="yes"/>
      <point x="289.791044776" y="950.0"/>
      <point x="225.0" y="874.223880597"/>
      <point x="225" y="819" type="qcurve" smooth="yes"/>
      <point x="225.0" y="759.298507463"/>
      <point x="297.23880597" y="682.52238806"/>
    </contour>
  </outline>
</glyph>
<glyph name="t" format="1">
  <advance width="618.496"/>
  <unicode hex="0074"/>
  <outline>
    <contour>
      <point x="586" y="193" type="qcurve"/>
      <point x="586" y="51" type="line"/>
      <point x="529.28358209" y="17.4179104478"/>
      <point x="425.47761194" y="-14.0"/>
      <point x="371" y="-14" type="qcurve" smooth="yes"/>
      <point x="270.253731343" y="-14.0"/>
      <point x="162.0" y="88.0746268657"/>
      <point x="162" y="203" type="qcurve" smooth="yes"/>
      <point x="162" y="930" type="line"/>
      <point x="20" y="930" type="line"/>
      <point x="20" y="1067" type="line"/>
      <point x="162" y="1067" type="line"/>
      <point x="162" y="1417" type="line"/>
      <point x="356" y="1495" type="line"/>
      <point x="356" y="1067" type="line"/>
      <point x="555" y="1067" type="line"/>
      <point x="555" y="930" type="line"/>
      <point x="356" y="930" type="line"/>
      <point x="356" y="246" type="line" smooth="yes"/>
      <point x="356.0" y="190.776119403"/>
      <point x="404.955223881" y="139.0"/>
      <point x="446" y="139" type="qcurve" smooth="yes"/>
      <point x="476.597014925" y="139.0"/>
      <point x="542.71641791" y="163.895522388"/>
    </contour>
  </outline>
</glyph>
<glyph name="u" format="1">
  <advance width="854.016"/>
  <unicode hex="0075"/>
  <outline>
    <contour>
      <point x="762" y="1073" type="line"/>
      <point x="762" y="27" type="line"/>
      <point x="563" y="-18" type="line"/>
      <point x="563" y="201" type="line"/>
      <point x="555" y="201" type="line"/>
      <point x="486.343283582" y="100.253731343"/>
      <point x="354.328358209" y="-12.0"/>
      <point x="270" y="-12" type="qcurve" smooth="yes"/>
      <point x="181.940298507" y="-12.0"/>
      <point x="88.0" y="111.298507463"/>
      <point x="88" y="221" type="qcurve" smooth="yes"/>
      <point x="88" y="1073" type="line"/>
      <point x="287" y="1073" type="line"/>
      <point x="287" y="264" type="line" smooth="yes"/>
      <point x="287.0" y="201.313432836"/>
      <point x="330.731343284" y="141.0"/>
      <point x="377" y="141" type="qcurve" smooth="yes"/>
      <point x="421.029850746" y="141.0"/>
      <point x="517.47761194" y="219.388059701"/>
      <point x="563" y="297" type="qcurve"/>
      <point x="563" y="1073" type="line"/>
    </contour>
  </outline>
</glyph>
<glyph name="w" format="1">
  <advance width="1296.384"/>
  <unicode hex="0077"/>
  <outline>
    <contour>
      <point x="1079" y="1073" type="line"/>
      <point x="1264" y="1073" type="line"/>
      <point x="1024" y="-8" type="line"/>
      <point x="811" y="-8" type="line"/>
      <point x="651" y="801" type="line"/>
      <point x="487" y="-8" type="line"/>
      <point x="272" y="-8" type="line"/>
      <point x="33" y="1073" type="line"/>
      <point x="227" y="1073" type="line"/>
      <point x="391" y="236" type="line"/>
      <point x="551" y="1073" type="line"/>
      <point x="756" y="1073" type="line"/>
      <point x="915" y="236" type="line"/>
    </contour>
  </outline>
</glyph>
<glyph name="y" format="1">
  <advance width="815.104"/>
  <unicode hex="0079"/>
  <outline>
    <contour>
      <point x="590" y="1073" type="line"/>
      <point x="778" y="1073" type="line"/>
      <point x="489" y="-102" type="line" smooth="yes"/>
      <point x="449.447761194" y="-260.955223881"/>
      <point x="317.179104478" y="-389.0"/>
      <point x="203" y="-389" type="qcurve" smooth="yes"/>
      <point x="143.298507463" y="-389.0"/>
      <point x="66.5820895522" y="-369.671641791"/>
      <point x="33" y="-354" type="qcurve"/>
      <point x="33" y="-211" type="line"/>
      <point x="82" y="-211" type="line"/>
      <point x="96.9253731343" y="-244.582089552"/>
      <point x="141.462686567" y="-281.0"/>
      <point x="184" y="-281" type="qcurve" smooth="yes"/>
      <point x="224.298507463" y="-281.0"/>
      <point x="278.820895522" y="-228.746268657"/>
      <point x="293" y="-178" type="qcurve" smooth="yes"/>
      <point x="319" y="-84" type="line"/>
      <point x="29" y="1073" type="line"/>
      <point x="229" y="1073" type="line"/>
      <point x="410" y="174" type="line"/>
    </contour>
  </outline>
</glyph>
<glyph name="asciitilde" format="1">
  <advance width="630.784"/>
  <unicode hex="007E"/>
  <outline>
    <contour>
      <point x="492" y="700" type="qcurve"/>
      <point x="580" y="700" type="line"/>
      <point x="584.47761194" y="578.358208955"/>
      <point x="513.880597015" y="463.0"/>
      <point x="440" y="463" type="qcurve" smooth="yes"/>
      <point x="366.865671642" y="463.0"/>
      <point x="246.52238806" y="557.0"/>
      <point x="201" y="557" type="qcurve" smooth="yes"/>
      <point x="168.910447761" y="557.0"/>
      <point x="139.0" y="512.52238806"/>
      <point x="139" y="467" type="qcurve"/>
      <point x="49" y="467" type="line"/>
      <point x="46.0149253731" y="587.895522388"/>
      <point x="115.373134328" y="705.0"/>
      <point x="190" y="705" type="qcurve" smooth="yes"/>
      <point x="263.880597015" y="705.0"/>
      <point x="384.47761194" y="610.0"/>
      <point x="430" y="610" type="qcurve" smooth="yes"/>
      <point x="462.089552239" y="610.0"/>
      <point x="492.0" y="652.985074627"/>
    </contour>
  </outline>
</glyph>
<glyph name="exclamdown" format="1">
  <advance width="442.368"/>
  <unicode hex="00A1"/>
  <outline>
    <contour>
      <point x="221" y="1489" type="qcurve" smooth="yes"/>
      <point x="271.746268657" y="1489.0"/>
      <point x="340.0" y="1422.23880597"/>
      <point x="340" y="1370" type="qcurve" smooth="yes"/>
      <point x="340.0" y="1320.0"/>
      <point x="271.746268657" y="1251.0"/>
      <point x="221" y="1251" type="qcurve" smooth="yes"/>
      <point x="171.0" y="1251.0"/>
      <point x="102.0" y="1320.0"/>
      <point x="102" y="1370" type="qcurve" smooth="yes"/>
      <point x="102.0" y="1422.23880597"/>
      <point x="171.0" y="1489.0"/>
    </contour>
    <contour>
      <point x="274" y="1063" type="line"/>
      <point x="338" y="0" type="line"/>
      <point x="104" y="0" type="line"/>
      <point x="168" y="1063" type="line"/>
    </contour>
  </outline>
</glyph>
<glyph name="cent" format="1">
  <advance width="774.144"/>
  <unicode hex="00A2"/>
  <outline>
    <contour>
      <point x="575" y="334" type="qcurve"/>
      <point x="725" y="297" type="line"/>
      <point x="698.880597015" y="151.47761194"/>
      <point x="543.313432836" y="-20.0"/>
      <point x="406" y="-20" type="qcurve" smooth="yes"/>
      <point x="370.179104478" y="-20.0"/>
      <point x="304.597014925" y="-7.4328358209"/>
      <point x="274" y="6" type="qcurve"/>
      <point x="203" y="-195" type="line"/>
      <point x="109" y="-195" type="line"/>
      <point x="203" y="55" type="line"/>
      <point x="134.343283582" y="116.194029851"/>
      <point x="57.0" y="335.71641791"/>
      <point x="57" y="479" type="qcurve" smooth="yes"/>
      <point x="57" y="604" type="line" smooth="yes"/>
      <point x="57.0" y="830.119402985"/>
      <point x="251.52238806" y="1094.0"/>
      <point x="406" y="1094" type="qcurve" smooth="yes"/>
      <point x="451.52238806" y="1094.0"/>
      <point x="528.402985075" y="1074.91044776"/>
      <point x="559" y="1057" type="qcurve"/>
      <point x="635" y="1268" type="line"/>
      <point x="727" y="1268" type="line"/>
      <point x="338" y="145" type="line"/>
      <point x="355.910447761" y="128.582089552"/>
      <point x="395.850746269" y="115.0"/>
      <point x="416" y="115" type="qcurve" smooth="yes"/>
      <point x="472.71641791" y="115.0"/>
      <point x="555.597014925" y="220.567164179"/>
    </contour>
    <contour>
      <point x="283" y="221" type="qcurve"/>
      <point x="506" y="918" type="line"/>
      <point x="487.343283582" y="938.895522388"/>
      <point x="436.358208955" y="961.0"/>
      <point x="408" y="961" type="qcurve" smooth="yes"/>
      <point x="338.597014925" y="961.0"/>
      <point x="242.0" y="787.641791045"/>
      <point x="242" y="616" type="qcurve" smooth="yes"/>
      <point x="242" y="477" type="line" smooth="yes"/>
      <point x="242.0" y="391.179104478"/>
      <point x="261.358208955" y="260.552238806"/>
    </contour>
  </outline>
</glyph>
<glyph name="sterling" format="1">
  <advance width="956.416"/>
  <unicode hex="00A3"/>
  <outline>
    <contour>
      <point x="797" y="416" type="qcurve"/>
      <point x="924" y="362" type="line"/>
      <point x="888.925373134" y="164.985074627"/>
      <point x="744.194029851" y="-12.0"/>
      <point x="633" y="-12" type="qcurve" smooth="yes"/>
      <point x="562.850746269" y="-12.0"/>
      <point x="416.626865672" y="59.8059701493"/>
      <point x="342" y="121" type="qcurve"/>
      <point x="291.253731343" y="70.2537313433"/>
      <point x="153.074626866" y="2.92537313433"/>
      <point x="68" y="-12" type="qcurve"/>
      <point x="68" y="143" type="line"/>
      <point x="164.268656716" y="167.626865672"/>
      <point x="272.0" y="311.955223881"/>
      <point x="272" y="453" type="qcurve" smooth="yes"/>
      <point x="272.0" y="511.955223881"/>
      <point x="256.447761194" y="624.746268657"/>
      <point x="246" y="674" type="qcurve"/>
      <point x="59" y="674" type="line"/>
      <point x="59" y="791" type="line"/>
      <point x="215" y="791" type="line"/>
      <point x="194.850746269" y="865.626865672"/>
      <point x="156.0" y="1027.19402985"/>
      <point x="156" y="1116" type="qcurve" smooth="yes"/>
      <point x="156.0" y="1296.59701493"/>
      <point x="347.074626866" y="1499.0"/>
      <point x="512" y="1499" type="qcurve" smooth="yes"/>
      <point x="667.970149254" y="1499.0"/>
      <point x="830.76119403" y="1340.86567164"/>
      <point x="883" y="1214" type="qcurve"/>
      <point x="721" y="1135" type="line"/>
      <point x="681.447761194" y="1234.25373134"/>
      <point x="589.641791045" y="1333.0"/>
      <point x="518" y="1333" type="qcurve" smooth="yes"/>
      <point x="438.895522388" y="1333.0"/>
      <point x="350.0" y="1214.23880597"/>
      <point x="350" y="1112" type="qcurve" smooth="yes"/>
      <point x="350.0" y="1035.88059701"/>
      <point x="392.358208955" y="871.597014925"/>
      <point x="414" y="791" type="qcurve"/>
      <point x="717" y="791" type="line"/>
      <point x="717" y="674" type="line"/>
      <point x="442" y="674" type="line"/>
      <point x="451.701492537" y="623.253731343"/>
      <point x="465.0" y="511.955223881"/>
      <point x="465" y="453" type="qcurve" smooth="yes"/>
      <point x="465.0" y="393.298507463"/>
      <point x="446.656716418" y="290.537313433"/>
      <point x="428" y="248" type="qcurve"/>
      <point x="478.746268657" y="200.23880597"/>
      <point x="575.462686567" y="156.0"/>
      <point x="618" y="156" type="qcurve" smooth="yes"/>
      <point x="684.417910448" y="156.0"/>
      <point x="767.895522388" y="271.970149254"/>
    </contour>
  </outline>
</glyph>
<glyph name="yen" format="1">
  <advance width="999.424"/>
  <unicode hex="00A5"/>
  <outline>
    <contour>
      <point x="776" y="1475" type="line"/>
      <point x="973" y="1475" type="line"/>
      <point x="690" y="799" type="line"/>
      <point x="903" y="799" type="line"/>
      <point x="903" y="684" type="line"/>
      <point x="643" y="684" type="line"/>
      <point x="600" y="580" type="line"/>
      <point x="600" y="455" type="line"/>
      <point x="903" y="455" type="line"/>
      <point x="903" y="340" type="line"/>
      <point x="600" y="340" type="line"/>
      <point x="600" y="0" type="line"/>
      <point x="399" y="0" type="line"/>
      <point x="399" y="340" type="line"/>
      <point x="98" y="340" type="line"/>
      <point x="98" y="455" type="line"/>
      <point x="399" y="455" type="line"/>
      <point x="399" y="575" type="line"/>
      <point x="352" y="684" type="line"/>
      <point x="98" y="684" type="line"/>
      <point x="98" y="799" type="line"/>
      <point x="307" y="799" type="line"/>
      <point x="25" y="1475" type="line"/>
      <point x="246" y="1475" type="line"/>
      <point x="512" y="766" type="line"/>
    </contour>
  </outline>
</glyph>
<glyph name="copyright" format="1">
  <advance width="1343.488"/>
  <unicode hex="00A9"/>
  <outline>
    <contour>
      <point x="782" y="625" type="qcurve"/>
      <point x="911" y="592" type="line"/>
      <point x="890.104477612" y="456.179104478"/>
      <point x="774.208955224" y="311.0"/>
      <point x="666" y="311" type="qcurve" smooth="yes"/>
      <point x="552.567164179" y="311.0"/>
      <point x="414.0" y="507.402985075"/>
      <point x="414" y="688" type="qcurve" smooth="yes"/>
      <point x="414" y="805" type="line" smooth="yes"/>
      <point x="414.0" y="985.597014925"/>
      <point x="552.567164179" y="1182.0"/>
      <point x="666" y="1182" type="qcurve" smooth="yes"/>
      <point x="775.701492537" y="1182.0"/>
      <point x="886.104477612" y="1038.88059701"/>
      <point x="907" y="915" type="qcurve"/>
      <point x="776" y="881" type="line"/>
      <point x="762.567164179" y="980.253731343"/>
      <point x="713.014925373" y="1073.0"/>
      <point x="666" y="1073" type="qcurve" smooth="yes"/>
      <point x="606.298507463" y="1073.0"/>
      <point x="555.0" y="928.940298507"/>
      <point x="555" y="817" type="qcurve" smooth="yes"/>
      <point x="555" y="678" type="line" smooth="yes"/>
      <point x="555.0" y="563.074626866"/>
      <point x="611.28358209" y="422.0"/>
      <point x="668" y="422" type="qcurve" smooth="yes"/>
      <point x="716.507462687" y="422.0"/>
      <point x="767.074626866" y="520.52238806"/>
    </contour>
    <contour>
      <point x="674" y="1499" type="qcurve" smooth="yes"/>
      <point x="936.686567164" y="1499.0"/>
      <point x="1280.0" y="1064.6119403"/>
      <point x="1280" y="737" type="qcurve" smooth="yes"/>
      <point x="1280.0" y="411.626865672"/>
      <point x="936.179104478" y="-25.0"/>
      <point x="672" y="-25" type="qcurve" smooth="yes"/>
      <point x="408.567164179" y="-25.0"/>
      <point x="66.0" y="410.134328358"/>
      <point x="66" y="737" type="qcurve" smooth="yes"/>
      <point x="66.0" y="1064.6119403"/>
      <point x="409.074626866" y="1499.0"/>
    </contour>
    <contour>
      <point x="674" y="37" type="qcurve" smooth="yes"/>
      <point x="915.044776119" y="37.0"/>
      <point x="1212.0" y="439.23880597"/>
      <point x="1212" y="737" type="qcurve" smooth="yes"/>
      <point x="1212.0" y="1034.01492537"/>
      <point x="913.044776119" y="1438.0"/>
      <point x="672" y="1438" type="qcurve" smooth="yes"/>
      <point x="430.208955224" y="1438.0"/>
      <point x="133.0" y="1035.50746269"/>
      <point x="133" y="737" type="qcurve" smooth="yes"/>
      <point x="133.0" y="440.731343284"/>
      <point x="430.71641791" y="37.0"/>
    </contour>
  </outline>
</glyph>
<glyph name="guillemotleft" format="1">
  <advance width="788.48"/>
  <unicode hex="00AB"/>
  <outline>
    <contour>
      <point x="231" y="537" type="line"/>
      <point x="399" y="152" type="line"/>
      <point x="291" y="152" type="line"/>
      <point x="31" y="537" type="line"/>
      <point x="291" y="922" type="line"/>
      <point x="399" y="922" type="line"/>
    </contour>
    <contour>
      <point x="565" y="537" type="line"/>
      <point x="735" y="152" type="line"/>
      <point x="627" y="152" type="line"/>
      <point x="365" y="537" type="line"/>
      <point x="627" y="922" type="line"/>
      <point x="735" y="922" type="line"/>
    </contour>
  </outline>
</glyph>
<glyph name="degree" format="1">
  <advance width="681.984"/>
  <unicode hex="00B0"/>
  <outline>
    <contour>
      <point x="344" y="1483" type="qcurve" smooth="yes"/>
      <point x="457.432835821" y="1483.0"/>
      <point x="608.0" y="1336.19402985"/>
      <point x="608" y="1225" type="qcurve" smooth="yes"/>
      <point x="608.0" y="1111.56716418"/>
      <point x="457.432835821" y="965.0"/>
      <point x="344" y="965" type="qcurve" smooth="yes"/>
      <point x="232.805970149" y="965.0"/>
      <point x="84.0" y="1111.56716418"/>
      <point x="84" y="1225" type="qcurve" smooth="yes"/>
      <point x="84.0" y="1336.19402985"/>
      <point x="232.805970149" y="1483.0"/>
    </contour>
    <contour>
      <point x="344" y="1059" type="qcurve" smooth="yes"/>
      <point x="412.656716418" y="1059.0"/>
      <point x="500.0" y="1154.10447761"/>
      <point x="500" y="1225" type="qcurve" smooth="yes"/>
      <point x="500.0" y="1295.14925373"/>
      <point x="412.656716418" y="1389.0"/>
      <point x="344" y="1389" type="qcurve" smooth="yes"/>
      <point x="276.835820896" y="1389.0"/>
      <point x="190.0" y="1295.14925373"/>
      <point x="190" y="1225" type="qcurve" smooth="yes"/>
      <point x="190.0" y="1154.10447761"/>
      <point x="276.835820896" y="1059.0"/>
    </contour>
  </outline>
</glyph>
<glyph name="periodcentered" format="1">
  <advance width="368.64"/>
  <unicode hex="00B7"/>
  <outline>
    <contour>
      <point x="184" y="688" type="qcurve" smooth="yes"/>
      <point x="234.746268657" y="688.0"/>
      <point x="303.0" y="619.746268657"/>
      <point x="303" y="569" type="qcurve" smooth="yes"/>
      <point x="303.0" y="519.0"/>
      <point x="234.746268657" y="451.0"/>
      <point x="184" y="451" type="qcurve" smooth="yes"/>
      <point x="134.0" y="451.0"/>
      <point x="66.0" y="519.0"/>
      <point x="66" y="569" type="qcurve" smooth="yes"/>
      <point x="66.0" y="619.746268657"/>
      <point x="134.0" y="688.0"/>
    </contour>
  </outline>
</glyph>
<glyph name="cedilla" format="1">
  <advance width="806.912"/>
  <unicode hex="00B8"/>
  <outline>
    <contour>
      <point x="477" y="-76" type="qcurve" smooth="yes"/>
      <point x="535.208955224" y="-76.0"/>
      <point x="604.0" y="-128.0"/>
      <point x="604" y="-178" type="qcurve" smooth="yes"/>
      <point x="604.0" y="-263.820895522"/>
      <point x="416.014925373" y="-346.47761194"/>
      <point x="219" y="-342" type="qcurve"/>
      <point x="219" y="-291" type="line"/>
      <point x="369.0" y="-289.507462687"/>
      <point x="487.0" y="-243.059701493"/>
      <point x="487" y="-205" type="qcurve" smooth="yes"/>
      <point x="487.0" y="-183.358208955"/>
      <point x="457.104477612" y="-160.0"/>
      <point x="428" y="-160" type="qcurve" smooth="yes"/>
      <point x="403.373134328" y="-160.0"/>
      <point x="359.641791045" y="-169.552238806"/>
      <point x="338" y="-180" type="qcurve"/>
      <point x="293" y="-147" type="line"/>
      <point x="383" y="0" type="line"/>
      <point x="453" y="0" type="line"/>
      <point x="399" y="-88" type="line"/>
      <point x="414.671641791" y="-82.0298507463"/>
      <point x="453.865671642" y="-76.0"/>
    </contour>
  </outline>
</glyph>
<glyph name="guillemotright" format="1">
  <advance width="788.48"/>
  <unicode hex="00BB"/>
  <outline>
    <contour>
      <point x="162" y="922" type="line"/>
      <point x="424" y="537" type="line"/>
      <point x="162" y="152" type="line"/>
      <point x="53" y="152" type="line"/>
      <point x="223" y="537" type="line"/>
      <point x="53" y="922" type="line"/>
    </contour>
    <contour>
      <point x="498" y="922" type="line"/>
      <point x="758" y="537" type="line"/>
      <point x="498" y="152" type="line"/>
      <point x="389" y="152" type="line"/>
      <point x="559" y="537" type="line"/>
      <point x="389" y="922" type="line"/>
    </contour>
  </outline>
</glyph>
<glyph name="questiondown" format="1">
  <advance width="788.48"/>
  <unicode hex="00BF"/>
  <outline>
    <contour>
      <point x="594" y="377" type="qcurve"/>
      <point x="760" y="319" type="line"/>
      <point x="724.925373134" y="154.074626866"/>
      <point x="548.462686567" y="-25.0"/>
      <point x="391" y="-25" type="qcurve" smooth="yes"/>
      <point x="232.044776119" y="-25.0"/>
      <point x="57.0" y="173.044776119"/>
      <point x="57" y="332" type="qcurve" smooth="yes"/>
      <point x="57.0" y="467.820895522"/>
      <point x="151.701492537" y="631.746268657"/>
      <point x="242" y="731" type="qcurve" smooth="yes"/>
      <point x="312.149253731" y="805.626865672"/>
      <point x="366.52238806" y="937.626865672"/>
      <point x="371" y="1063" type="qcurve"/>
      <point x="485" y="1063" type="line"/>
      <point x="500.671641791" y="892.104477612"/>
      <point x="451.567164179" y="714.47761194"/>
      <point x="365" y="610" type="qcurve" smooth="yes"/>
      <point x="305.298507463" y="541.343283582"/>
      <point x="252.0" y="416.119402985"/>
      <point x="252" y="340" type="qcurve" smooth="yes"/>
      <point x="252.0" y="246.71641791"/>
      <point x="331.835820896" y="135.0"/>
      <point x="399" y="135" type="qcurve" smooth="yes"/>
      <point x="469.895522388" y="135.0"/>
      <point x="560.417910448" y="247.149253731"/>
    </contour>
    <contour>
      <point x="424" y="1489" type="qcurve" smooth="yes"/>
      <point x="476.23880597" y="1489.0"/>
      <point x="543.0" y="1422.23880597"/>
      <point x="543" y="1370" type="qcurve" smooth="yes"/>
      <point x="543.0" y="1320.0"/>
      <point x="476.23880597" y="1251.0"/>
      <point x="424" y="1251" type="qcurve" smooth="yes"/>
      <point x="373.253731343" y="1251.0"/>
      <point x="305.0" y="1320.0"/>
      <point x="305" y="1370" type="qcurve" smooth="yes"/>
      <point x="305.0" y="1422.23880597"/>
      <point x="373.253731343" y="1489.0"/>
    </contour>
  </outline>
</glyph>
<glyph name="AE" format="1">
  <advance width="1523.712"/>
  <unicode hex="00C6"/>
  <outline>
    <contour>
      <point x="1475" y="168" type="line"/>
      <point x="1475" y="0" type="line"/>
      <point x="758" y="0" type="line"/>
      <point x="758" y="367" type="line"/>
      <point x="369" y="367" type="line"/>
      <point x="227" y="0" type="line"/>
      <point x="18" y="0" type="line"/>
      <point x="594" y="1475" type="line"/>
      <point x="1456" y="1475" type="line"/>
      <point x="1456" y="1307" type="line"/>
      <point x="965" y="1307" type="line"/>
      <point x="965" y="848" type="line"/>
      <point x="1352" y="848" type="line"/>
      <point x="1352" y="688" type="line"/>
      <point x="965" y="688" type="line"/>
      <point x="965" y="168" type="line"/>
    </contour>
    <contour>
      <point x="418" y="518" type="line"/>
      <point x="758" y="518" type="line"/>
      <point x="758" y="1309" type="line"/>
      <point x="723" y="1309" type="line"/>
    </contour>
  </outline>
</glyph>
<glyph name="multiply" format="1">
  <advance width="995.328"/>
  <unicode hex="00D7"/>
  <outline>
    <contour>
      <point x="604" y="725" type="line"/>
      <point x="881" y="451" type="line"/>
      <point x="772" y="340" type="line"/>
      <point x="496" y="618" type="line"/>
      <point x="221" y="340" type="line"/>
      <point x="113" y="451" type="line"/>
      <point x="389" y="725" type="line"/>
      <point x="113" y="999" type="line"/>
      <point x="221" y="1108" type="line"/>
      <point x="496" y="831" type="line"/>
      <point x="772" y="1110" type="line"/>
      <point x="881" y="1001" type="line"/>
    </contour>
  </outline>
</glyph>
<glyph name="Oslash" format="1">
  <advance width="1017.856"/>
  <unicode hex="00D8"/>
  <outline>
    <contour>
      <point x="834" y="1673" type="line"/>
      <point x="952" y="1673" type="line"/>
      <point x="813" y="1346" type="line"/>
      <point x="877.179104478" y="1261.67164179"/>
      <point x="948.0" y="1007.91044776"/>
      <point x="948" y="840" type="qcurve" smooth="yes"/>
      <point x="948" y="637" type="line" smooth="yes"/>
      <point x="948.0" y="322.074626866"/>
      <point x="710.0" y="-25.0"/>
      <point x="510" y="-25" type="qcurve" smooth="yes"/>
      <point x="445.820895522" y="-25.0"/>
      <point x="332.52238806" y="14.4328358209"/>
      <point x="287" y="51" type="qcurve"/>
      <point x="186" y="-199" type="line"/>
      <point x="68" y="-199" type="line"/>
      <point x="207" y="129" type="line"/>
      <point x="144.313432836" y="213.328358209"/>
      <point x="72.0" y="465.597014925"/>
      <point x="72" y="635" type="qcurve" smooth="yes"/>
      <point x="72" y="838" type="line" smooth="yes"/>
      <point x="72.0" y="1152.92537313"/>
      <point x="308.507462687" y="1499.0"/>
      <point x="510" y="1499" type="qcurve" smooth="yes"/>
      <point x="574.179104478" y="1499.0"/>
      <point x="687.47761194" y="1460.31343284"/>
      <point x="733" y="1423" type="qcurve"/>
    </contour>
    <contour>
      <point x="307" y="340" type="qcurve"/>
      <point x="666" y="1253" type="line"/>
      <point x="638.388059701" y="1297.7761194"/>
      <point x="563.731343284" y="1350.0"/>
      <point x="510" y="1350" type="qcurve" smooth="yes"/>
      <point x="390.597014925" y="1350.0"/>
      <point x="281.0" y="1087.50746269"/>
      <point x="281" y="889" type="qcurve" smooth="yes"/>
      <point x="281" y="657" type="line" smooth="yes"/>
      <point x="281.0" y="553.268656716"/>
      <point x="295.059701493" y="390.746268657"/>
    </contour>
    <contour>
      <point x="510" y="125" type="qcurve" smooth="yes"/>
      <point x="627.910447761" y="125.0"/>
      <point x="737.0" y="386.746268657"/>
      <point x="737" y="586" type="qcurve" smooth="yes"/>
      <point x="737" y="813" type="line" smooth="yes"/>
      <point x="737.0" y="913.746268657"/>
      <point x="727.925373134" y="1070.82089552"/>
      <point x="713" y="1135" type="qcurve"/>
      <point x="354" y="221" type="line"/>
      <point x="380.119402985" y="175.47761194"/>
      <point x="459.253731343" y="125.0"/>
    </contour>
  </outline>
</glyph>
<glyph name="Thorn" format="1">
  <advance width="931.84"/>
  <unicode hex="00DE"/>
  <outline>
    <contour>
      <point x="428" y="1202" type="line" smooth="yes"/>
      <point x="643.671641791" y="1202.0"/>
      <point x="887.0" y="980.179104478"/>
      <point x="887" y="766" type="qcurve" smooth="yes"/>
      <point x="887.0" y="547.343283582"/>
      <point x="644.656716418" y="315.0"/>
      <point x="426" y="315" type="qcurve" smooth="yes"/>
      <point x="317" y="315" type="line"/>
      <point x="317" y="0" type="line"/>
      <point x="111" y="0" type="line"/>
      <point x="111" y="1475" type="line"/>
      <point x="317" y="1475" type="line"/>
      <point x="317" y="1202" type="line"/>
    </contour>
    <contour>
      <point x="438" y="473" type="line" smooth="yes"/>
      <point x="561.880597015" y="473.0"/>
      <point x="686.0" y="620.447761194"/>
      <point x="686" y="760" type="qcurve" smooth="yes"/>
      <point x="686.0" y="898.805970149"/>
      <point x="559.373134328" y="1047.0"/>
      <point x="434" y="1047" type="qcurve" smooth="yes"/>
      <point x="315" y="1047" type="line"/>
      <point x="315" y="473" type="line"/>
    </contour>
  </outline>
</glyph>
<glyph name="ae" format="1">
  <advance width="1280.0"/>
  <unicode hex="00E6"/>
  <outline>
    <contour>
      <point x="1225" y="549" type="qcurve" smooth="yes"/>
      <point x="1225" y="492" type="line"/>
      <point x="717" y="492" type="line"/>
      <point x="717" y="463" type="line" smooth="yes"/>
      <point x="717.0" y="301.059701493"/>
      <point x="835.76119403" y="133.0"/>
      <point x="938" y="133" type="qcurve" smooth="yes"/>
      <point x="996.208955224" y="133.0"/>
      <point x="1116.52238806" y="185.985074627"/>
      <point x="1171" y="233" type="qcurve"/>
      <point x="1225" y="104" type="line"/>
      <point x="1159.32835821" y="49.5223880597"/>
      <point x="1001.26865672" y="-18.0"/>
      <point x="905" y="-18" type="qcurve" smooth="yes"/>
      <point x="801.268656716" y="-18.0"/>
      <point x="643.044776119" y="80.6865671642"/>
      <point x="602" y="168" type="qcurve"/>
      <point x="596" y="168" type="line"/>
      <point x="536.298507463" y="77.7014925373"/>
      <point x="377.805970149" y="-14.0"/>
      <point x="289" y="-14" type="qcurve" smooth="yes"/>
      <point x="185.268656716" y="-14.0"/>
      <point x="41.0" y="125.194029851"/>
      <point x="41" y="264" type="qcurve" smooth="yes"/>
      <point x="41.0" y="415.492537313"/>
      <point x="280.47761194" y="619.358208955"/>
      <point x="526" y="641" type="qcurve"/>
      <point x="526" y="772" type="line" smooth="yes"/>
      <point x="526.0" y="856.328358209"/>
      <point x="463.686567164" y="938.0"/>
      <point x="401" y="938" type="qcurve" smooth="yes"/>
      <point x="345.029850746" y="938.0"/>
      <point x="226.626865672" y="893.52238806"/>
      <point x="152" y="848" type="qcurve"/>
      <point x="94" y="973" type="line"/>
      <point x="175.343283582" y="1021.50746269"/>
      <point x="351.507462687" y="1085.0"/>
      <point x="453" y="1085" type="qcurve" smooth="yes"/>
      <point x="549.268656716" y="1085.0"/>
      <point x="636.044776119" y="995.134328358"/>
      <point x="645" y="922" type="qcurve"/>
      <point x="655" y="922" type="line"/>
      <point x="685.597014925" y="998.119402985"/>
      <point x="807.656716418" y="1094.0"/>
      <point x="889" y="1094" type="qcurve" smooth="yes"/>
      <point x="1046.46268657" y="1094.0"/>
      <point x="1225.0" y="798.253731343"/>
    </contour>
    <contour>
      <point x="367" y="117" type="qcurve" smooth="yes"/>
      <point x="415.507462687" y="117.0"/>
      <point x="519.447761194" y="183.880597015"/>
      <point x="559" y="260" type="qcurve"/>
      <point x="547.059701493" y="301.044776119"/>
      <point x="532.0" y="415.835820896"/>
      <point x="532" y="483" type="qcurve" smooth="yes"/>
      <point x="532" y="553" type="line"/>
      <point x="365.582089552" y="532.850746269"/>
      <point x="227.0" y="382.28358209"/>
      <point x="227" y="289" type="qcurve" smooth="yes"/>
      <point x="227.0" y="204.671641791"/>
      <point x="307.298507463" y="117.0"/>
    </contour>
    <contour>
      <point x="717" y="588" type="line"/>
      <point x="1040" y="588" type="line"/>
      <point x="1037.01492537" y="769.343283582"/>
      <point x="954.641791045" y="965.0"/>
      <point x="883" y="965" type="qcurve" smooth="yes"/>
      <point x="803.149253731" y="965.0"/>
      <point x="717.0" y="774.089552239"/>
      <point x="717" y="592" type="qcurve" smooth="yes"/>
    </contour>
  </outline>
</glyph>
<glyph name="ccedilla" format="1">
  <advance width="765.952"/>
  <unicode hex="00E7"/>
  <outline>
    <contour>
      <point x="565" y="334" type="qcurve"/>
      <point x="725" y="297" type="line"/>
      <point x="698.880597015" y="158.194029851"/>
      <point x="554.865671642" y="-14.0298507463"/>
      <point x="428" y="-20" type="qcurve"/>
      <point x="387" y="-88" type="line"/>
      <point x="402.671641791" y="-82.0298507463"/>
      <point x="441.358208955" y="-76.0"/>
      <point x="463" y="-76" type="qcurve" smooth="yes"/>
      <point x="521.208955224" y="-76.0"/>
      <point x="592.0" y="-128.0"/>
      <point x="592" y="-178" type="qcurve" smooth="yes"/>
      <point x="592.0" y="-263.820895522"/>
      <point x="404.014925373" y="-346.47761194"/>
      <point x="207" y="-342" type="qcurve"/>
      <point x="207" y="-291" type="line"/>
      <point x="355.507462687" y="-289.507462687"/>
      <point x="475.0" y="-243.059701493"/>
      <point x="475" y="-205" type="qcurve" smooth="yes"/>
      <point x="475.0" y="-183.358208955"/>
      <point x="443.104477612" y="-160.0"/>
      <point x="414" y="-160" type="qcurve" smooth="yes"/>
      <point x="390.865671642" y="-160.0"/>
      <point x="344.895522388" y="-169.552238806"/>
      <point x="324" y="-180" type="qcurve"/>
      <point x="281" y="-147" type="line"/>
      <point x="360" y="-16" type="line"/>
      <point x="219.701492537" y="1.91044776119"/>
      <point x="57.0" y="268.552238806"/>
      <point x="57" y="479" type="qcurve" smooth="yes"/>
      <point x="57" y="592" type="line" smooth="yes"/>
      <point x="57.0" y="818.119402985"/>
      <point x="252.029850746" y="1094.0"/>
      <point x="408" y="1094" type="qcurve" smooth="yes"/>
      <point x="551.28358209" y="1094.0"/>
      <point x="699.865671642" y="909.313432836"/>
      <point x="723" y="772" type="qcurve"/>
      <point x="555" y="735" type="line"/>
      <point x="536.343283582" y="843.955223881"/>
      <point x="471.194029851" y="954.0"/>
      <point x="410" y="954" type="qcurve" smooth="yes"/>
      <point x="337.611940299" y="954.0"/>
      <point x="254.0" y="770.925373134"/>
      <point x="254" y="606" type="qcurve" smooth="yes"/>
      <point x="254" y="469" type="line" smooth="yes"/>
      <point x="254.0" y="304.074626866"/>
      <point x="340.626865672" y="119.0"/>
      <point x="416" y="119" type="qcurve" smooth="yes"/>
      <point x="470.47761194" y="119.0"/>
      <point x="547.089552239" y="225.044776119"/>
    </contour>
  </outline>
</glyph>
<glyph name="eth" format="1">
  <advance width="835.584"/>
  <unicode hex="00F0"/>
  <outline>
    <contour>
      <point x="784" y="608" type="qcurve" smooth="yes"/>
      <point x="784" y="500" type="line" smooth="yes"/>
      <point x="784.0" y="256.71641791"/>
      <point x="580.925373134" y="-20.0"/>
      <point x="416" y="-20" type="qcurve" smooth="yes"/>
      <point x="249.582089552" y="-20.0"/>
      <point x="59.0" y="256.71641791"/>
      <point x="59" y="500" type="qcurve" smooth="yes"/>
      <point x="59" y="573" type="line" smooth="yes"/>
      <point x="59.0" y="816.28358209"/>
      <point x="229.47761194" y="1085.0"/>
      <point x="375" y="1085" type="qcurve" smooth="yes"/>
      <point x="446.641791045" y="1085.0"/>
      <point x="554.925373134" y="983.328358209"/>
      <point x="590" y="899" type="qcurve"/>
      <point x="600" y="899" type="line"/>
      <point x="586.567164179" y="1009.44776119"/>
      <point x="493.164179104" y="1221.20895522"/>
      <point x="426" y="1313" type="qcurve"/>
      <point x="242" y="1192" type="line"/>
      <point x="242" y="1288" type="line"/>
      <point x="373" y="1376" type="line"/>
      <point x="345.388059701" y="1409.58208955"/>
      <point x="286.089552239" y="1471.3880597"/>
      <point x="254" y="1499" type="qcurve"/>
      <point x="408" y="1561" type="line"/>
      <point x="431.880597015" y="1534.88059701"/>
      <point x="485.880597015" y="1478.08955224"/>
      <point x="512" y="1446" type="qcurve"/>
      <point x="694" y="1561" type="line"/>
      <point x="694" y="1468" type="line"/>
      <point x="561" y="1382" type="line"/>
      <point x="654.28358209" y="1252.14925373"/>
      <point x="784.0" y="875.910447761"/>
    </contour>
    <contour>
      <point x="424" y="113" type="qcurve" smooth="yes"/>
      <point x="501.611940299" y="113.0"/>
      <point x="590.0" y="303.940298507"/>
      <point x="590" y="492" type="qcurve" smooth="yes"/>
      <point x="590" y="582" type="line" smooth="yes"/>
      <point x="590.0" y="770.059701493"/>
      <point x="499.104477612" y="961.0"/>
      <point x="420" y="961" type="qcurve" smooth="yes"/>
      <point x="341.641791045" y="961.0"/>
      <point x="254.0" y="770.059701493"/>
      <point x="254" y="582" type="qcurve" smooth="yes"/>
      <point x="254" y="492" type="line" smooth="yes"/>
      <point x="254.0" y="303.940298507"/>
      <point x="344.149253731" y="113.0"/>
    </contour>
  </outline>
</glyph>
<glyph name="divide" format="1">
  <advance width="970.752"/>
  <unicode hex="00F7"/>
  <outline>
    <contour>
      <point x="485" y="467" type="qcurve" smooth="yes"/>
      <point x="537.23880597" y="467.0"/>
      <point x="606.0" y="398.23880597"/>
      <point x="606" y="346" type="qcurve" smooth="yes"/>
      <point x="606.0" y="293.76119403"/>
      <point x="537.23880597" y="227.0"/>
      <point x="485" y="227" type="qcurve" smooth="yes"/>
      <point x="433.507462687" y="227.0"/>
      <point x="365.0" y="293.76119403"/>
      <point x="365" y="346" type="qcurve" smooth="yes"/>
      <point x="365.0" y="398.23880597"/>
      <point x="433.507462687" y="467.0"/>
    </contour>
    <contour>
      <point x="485" y="1227" type="qcurve" smooth="yes"/>
      <point x="537.23880597" y="1227.0"/>
      <point x="606.0" y="1158.23880597"/>
      <point x="606" y="1106" type="qcurve" smooth="yes"/>
      <point x="606.0" y="1055.25373134"/>
      <point x="537.23880597" y="987.0"/>
      <point x="485" y="987" type="qcurve" smooth="yes"/>
      <point x="433.507462687" y="987.0"/>
      <point x="365.0" y="1055.25373134"/>
      <point x="365" y="1106" type="qcurve" smooth="yes"/>
      <point x="365.0" y="1158.23880597"/>
      <point x="433.507462687" y="1227.0"/>
    </contour>
    <contour>
      <point x="905" y="809" type="line"/>
      <point x="905" y="643" type="line"/>
      <point x="63" y="643" type="line"/>
      <point x="63" y="809" type="line"/>
    </contour>
  </outline>
</glyph>
<glyph name="oslash" format="1">
  <advance width="845.824"/>
  <unicode hex="00F8"/>
  <outline>
    <contour>
      <point x="674" y="1268" type="line"/>
      <point x="782" y="1268" type="line"/>
      <point x="664" y="987" type="line"/>
      <point x="722.955223881" y="918.343283582"/>
      <point x="788.0" y="713.850746269"/>
      <point x="788" y="584" type="qcurve" smooth="yes"/>
      <point x="788" y="492" type="line" smooth="yes"/>
      <point x="788.0" y="262.149253731"/>
      <point x="591.402985075" y="-20.0"/>
      <point x="422" y="-20" type="qcurve" smooth="yes"/>
      <point x="377.223880597" y="-20.0"/>
      <point x="295.074626866" y="3.86567164179"/>
      <point x="260" y="27" type="qcurve"/>
      <point x="172" y="-195" type="line"/>
      <point x="63" y="-195" type="line"/>
      <point x="182" y="88" type="line"/>
      <point x="120.805970149" y="155.164179104"/>
      <point x="57.0" y="359.910447761"/>
      <point x="57" y="492" type="qcurve" smooth="yes"/>
      <point x="57" y="584" type="line" smooth="yes"/>
      <point x="57.0" y="811.611940299"/>
      <point x="254.597014925" y="1094.0"/>
      <point x="424" y="1094" type="qcurve" smooth="yes"/>
      <point x="469.52238806" y="1094.0"/>
      <point x="552.417910448" y="1069.3880597"/>
      <point x="586" y="1047" type="qcurve"/>
    </contour>
    <contour>
      <point x="424" y="109" type="qcurve" smooth="yes"/>
      <point x="504.597014925" y="109.0"/>
      <point x="592.0" y="309.089552239"/>
      <point x="592" y="477" type="qcurve" smooth="yes"/>
      <point x="592" y="578" type="line" smooth="yes"/>
      <point x="592.0" y="654.119402985"/>
      <point x="579.208955224" y="772.432835821"/>
      <point x="571" y="809" type="qcurve"/>
      <point x="317" y="168" type="line"/>
      <point x="337.149253731" y="138.895522388"/>
      <point x="391.910447761" y="109.0"/>
    </contour>
    <contour>
      <point x="274" y="266" type="qcurve"/>
      <point x="528" y="905" type="line"/>
      <point x="508.597014925" y="932.611940299"/>
      <point x="457.074626866" y="965.0"/>
      <point x="422" y="965" type="qcurve" smooth="yes"/>
      <point x="340.656716418" y="965.0"/>
      <point x="254.0" y="765.910447761"/>
      <point x="254" y="598" type="qcurve" smooth="yes"/>
      <point x="254" y="489" type="line" smooth="yes"/>
      <point x="254.0" y="434.52238806"/>
      <point x="265.044776119" y="304.059701493"/>
    </contour>
  </outline>
</glyph>
<glyph name="dotlessi" format="1">
  <advance width="403.456"/>
  <unicode hex="0131"/>
  <outline>
    <contour>
      <point x="301" y="1073" type="line"/>
      <point x="301" y="0" type="line"/>
      <point x="102" y="0" type="line"/>
      <point x="102" y="1073" type="line"/>
    </contour>
  </outline>
</glyph>
<glyph name="Lslash" format="1">
  <advance width="866.304"/>
  <unicode hex="0141"/>
  <outline>
    <contour>
      <point x="846" y="170" type="line"/>
      <point x="846" y="0" type="line"/>
      <point x="162" y="0" type="line"/>
      <point x="162" y="627" type="line"/>
      <point x="43" y="557" type="line"/>
      <point x="43" y="739" type="line"/>
      <point x="162" y="807" type="line"/>
      <point x="162" y="1475" type="line"/>
      <point x="373" y="1475" type="line"/>
      <point x="373" y="915" type="line"/>
      <point x="590" y="1038" type="line"/>
      <point x="590" y="856" type="line"/>
      <point x="373" y="733" type="line"/>
      <point x="373" y="170" type="line"/>
    </contour>
  </outline>
</glyph>
<glyph name="OE" format="1">
  <advance width="1452.032"/>
  <unicode hex="0152"/>
  <outline>
    <contour>
      <point x="1405" y="168" type="line"/>
      <point x="1405" y="0" type="line"/>
      <point x="567" y="0" type="line" smooth="yes"/>
      <point x="337.895522388" y="0.0"/>
      <point x="72.0" y="328.074626866"/>
      <point x="72" y="643" type="qcurve" smooth="yes"/>
      <point x="72" y="829" type="line" smooth="yes"/>
      <point x="72.0" y="1148.40298507"/>
      <point x="343.388059701" y="1475.0"/>
      <point x="571" y="1475" type="qcurve" smooth="yes"/>
      <point x="1384" y="1475" type="line"/>
      <point x="1384" y="1307" type="line"/>
      <point x="893" y="1307" type="line"/>
      <point x="893" y="848" type="line"/>
      <point x="1280" y="848" type="line"/>
      <point x="1280" y="688" type="line"/>
      <point x="893" y="688" type="line"/>
      <point x="893" y="168" type="line"/>
    </contour>
    <contour>
      <point x="582" y="152" type="qcurve" smooth="yes"/>
      <point x="688" y="152" type="line"/>
      <point x="688" y="1323" type="line"/>
      <point x="578" y="1323" type="line" smooth="yes"/>
      <point x="433.970149254" y="1323.0"/>
      <point x="276.0" y="1085.19402985"/>
      <point x="276" y="874" type="qcurve" smooth="yes"/>
      <point x="276" y="602" type="line" smooth="yes"/>
      <point x="276.0" y="389.313432836"/>
      <point x="433.492537313" y="152.0"/>
    </contour>
  </outline>
</glyph>
<glyph name="oe" format="1">
  <advance width="1343.488"/>
  <unicode hex="0153"/>
  <outline>
    <contour>
      <point x="1288" y="549" type="qcurve" smooth="yes"/>
      <point x="1288" y="492" type="line"/>
      <point x="780" y="492" type="line"/>
      <point x="780" y="463" type="line" smooth="yes"/>
      <point x="780.0" y="298.074626866"/>
      <point x="900.253731343" y="133.0"/>
      <point x="1001" y="133" type="qcurve" smooth="yes"/>
      <point x="1060.70149254" y="133.0"/>
      <point x="1181.7761194" y="185.985074627"/>
      <point x="1237" y="233" type="qcurve"/>
      <point x="1290" y="104" type="line"/>
      <point x="1224.32835821" y="49.5223880597"/>
      <point x="1065.29850746" y="-18.0"/>
      <point x="975" y="-18" type="qcurve" smooth="yes"/>
      <point x="874.253731343" y="-18.0"/>
      <point x="728.597014925" y="104.791044776"/>
      <point x="698" y="213" type="qcurve"/>
      <point x="686" y="213" type="line"/>
      <point x="655.402985075" y="110.76119403"/>
      <point x="518.746268657" y="-20.0"/>
      <point x="418" y="-20" type="qcurve" smooth="yes"/>
      <point x="253.074626866" y="-20.0"/>
      <point x="57.0" y="262.149253731"/>
      <point x="57" y="492" type="qcurve" smooth="yes"/>
      <point x="57" y="584" type="line" smooth="yes"/>
      <point x="57.0" y="811.611940299"/>
      <point x="255.074626866" y="1094.0"/>
      <point x="420" y="1094" type="qcurve" smooth="yes"/>
      <point x="514.776119403" y="1094.0"/>
      <point x="659.373134328" y="962.23880597"/>
      <point x="684" y="860" type="qcurve"/>
      <point x="696" y="860" type="line"/>
      <point x="722.119402985" y="963.731343284"/>
      <point x="864.447761194" y="1094.0"/>
      <point x="954" y="1094" type="qcurve" smooth="yes"/>
      <point x="1109.97014925" y="1094.0"/>
      <point x="1288.0" y="798.253731343"/>
    </contour>
    <contour>
      <point x="424" y="113" type="qcurve" smooth="yes"/>
      <point x="503.104477612" y="113.0"/>
      <point x="594.0" y="304.582089552"/>
      <point x="594" y="471" type="qcurve" smooth="yes"/>
      <point x="594" y="602" type="line" smooth="yes"/>
      <point x="594.0" y="768.417910448"/>
      <point x="501.104477612" y="961.0"/>
      <point x="422" y="961" type="qcurve" smooth="yes"/>
      <point x="340.656716418" y="961.0"/>
      <point x="254.0" y="768.417910448"/>
      <point x="254" y="602" type="qcurve" smooth="yes"/>
      <point x="254" y="471" type="line" smooth="yes"/>
      <point x="254.0" y="304.582089552"/>
      <point x="344.149253731" y="113.0"/>
    </contour>
    <contour>
      <point x="780" y="588" type="line"/>
      <point x="1106" y="588" type="line"/>
      <point x="1103.01492537" y="769.343283582"/>
      <point x="1019.64179104" y="965.0"/>
      <point x="948" y="965" type="qcurve" smooth="yes"/>
      <point x="868.895522388" y="965.0"/>
      <point x="780.0" y="774.089552239"/>
      <point x="780" y="592" type="qcurve" smooth="yes"/>
    </contour>
  </outline>
</glyph>
<glyph name="florin" format="1">
  <advance width="786.432"/>
  <unicode hex="0192"/>
  <outline>
    <contour>
      <point x="590" y="1487" type="qcurve" smooth="yes"/>
      <point x="648.208955224" y="1487.0"/>
      <point x="734.925373134" y="1470.68656716"/>
      <point x="770" y="1458" type="qcurve"/>
      <point x="764" y="1309" type="line"/>
      <point x="731.910447761" y="1320.94029851"/>
      <point x="673.059701493" y="1331.0"/>
      <point x="635" y="1331" type="qcurve" smooth="yes"/>
      <point x="579.776119403" y="1331.0"/>
      <point x="508.447761194" y="1259.10447761"/>
      <point x="498" y="1180" type="qcurve" smooth="yes"/>
      <point x="465" y="948" type="line"/>
      <point x="674" y="948" type="line"/>
      <point x="653" y="799" type="line"/>
      <point x="444" y="799" type="line"/>
      <point x="315" y="-127" type="line" smooth="yes"/>
      <point x="295.597014925" y="-274.014925373"/>
      <point x="144.253731343" y="-389.0"/>
      <point x="45" y="-389" type="qcurve" smooth="yes"/>
      <point x="0.970149253731" y="-389.0"/>
      <point x="-72.3880597015" y="-376.462686567"/>
      <point x="-100" y="-369" type="qcurve"/>
      <point x="-80" y="-221" type="line"/>
      <point x="-59.8507462687" y="-226.970149254"/>
      <point x="-11.3731343284" y="-236.0"/>
      <point x="14" y="-236" type="qcurve" smooth="yes"/>
      <point x="58.776119403" y="-236.0"/>
      <point x="114.044776119" y="-176.895522388"/>
      <point x="123" y="-106" type="qcurve" smooth="yes"/>
      <point x="250" y="799" type="line"/>
      <point x="88" y="799" type="line"/>
      <point x="109" y="948" type="line"/>
      <point x="270" y="948" type="line"/>
      <point x="307" y="1198" type="line" smooth="yes"/>
      <point x="330.134328358" y="1355.46268657"/>
      <point x="476.567164179" y="1487.0"/>
    </contour>
  </outline>
</glyph>
<glyph name="caron" format="1">
  <advance width="806.912"/>
  <unicode hex="02C7"/>
  <outline>
    <contour>
      <point x="561" y="1450" type="line"/>
      <point x="655" y="1450" type="line"/>
      <point x="483" y="1186" type="line"/>
      <point x="326" y="1186" type="line"/>
      <point x="152" y="1450" type="line"/>
      <point x="246" y="1450" type="line"/>
      <point x="403" y="1300" type="line"/>
    </contour>
  </outline>
</glyph>
<glyph name="breve" format="1">
  <advance width="806.912"/>
  <unicode hex="02D8"/>
  <outline>
    <contour>
      <point x="563" y="1450" type="qcurve"/>
      <point x="645" y="1450" type="line"/>
      <point x="640.52238806" y="1324.62686567"/>
      <point x="520.910447761" y="1180.0"/>
      <point x="403" y="1180" type="qcurve" smooth="yes"/>
      <point x="285.835820896" y="1180.0"/>
      <point x="166.47761194" y="1324.62686567"/>
      <point x="162" y="1450" type="qcurve"/>
      <point x="246" y="1450" type="line"/>
      <point x="256.447761194" y="1372.3880597"/>
      <point x="337.328358209" y="1298.0"/>
      <point x="403" y="1298" type="qcurve" smooth="yes"/>
      <point x="469.417910448" y="1298.0"/>
      <point x="552.552238806" y="1372.3880597"/>
    </contour>
  </outline>
</glyph>
<glyph name="ring" format="1">
  <advance width="806.912"/>
  <unicode hex="02DA"/>
  <outline>
    <contour>
      <point x="403" y="1495" type="qcurve" smooth="yes"/>
      <point x="479.865671642" y="1495.0"/>
      <point x="580.0" y="1401.65671642"/>
      <point x="580" y="1333" type="qcurve" smooth="yes"/>
      <point x="580.0" y="1264.34328358"/>
      <point x="479.865671642" y="1171.0"/>
      <point x="403" y="1171" type="qcurve" smooth="yes"/>
      <point x="326.880597015" y="1171.0"/>
      <point x="229.0" y="1264.34328358"/>
      <point x="229" y="1333" type="qcurve" smooth="yes"/>
      <point x="229.0" y="1401.65671642"/>
      <point x="326.880597015" y="1495.0"/>
    </contour>
    <contour>
      <point x="403" y="1239" type="qcurve" smooth="yes"/>
      <point x="441.805970149" y="1239.0"/>
      <point x="492.0" y="1295.44776119"/>
      <point x="492" y="1335" type="qcurve" smooth="yes"/>
      <point x="492.0" y="1373.05970149"/>
      <point x="441.805970149" y="1427.0"/>
      <point x="403" y="1427" type="qcurve" smooth="yes"/>
      <point x="364.940298507" y="1427.0"/>
      <point x="315.0" y="1373.05970149"/>
      <point x="315" y="1335" type="qcurve" smooth="yes"/>
      <point x="315.0" y="1295.44776119"/>
      <point x="364.940298507" y="1239.0"/>
    </contour>
  </outline>
</glyph>
<glyph name="endash" format="1">
  <advance width="815.104"/>
  <unicode hex="2013"/>
  <outline>
    <contour>
      <point x="758" y="664" type="line"/>
      <point x="758" y="502" type="line"/>
      <point x="57" y="502" type="line"/>
      <point x="57" y="664" type="line"/>
    </contour>
  </outline>
</glyph>
<glyph name="quoteleft" format="1">
  <advance width="356.352"/>
  <unicode hex="2018"/>
  <unicode hex="02BB"/>
  <outline>
    <contour>
      <point x="248" y="1475" type="line"/>
      <point x="305" y="1010" type="line"/>
      <point x="215" y="1010" type="line"/>
      <point x="47" y="1475" type="line"/>
    </contour>
  </outline>
</glyph>
<glyph name="quoteright" format="1">
  <advance width="368.64"/>
  <unicode hex="2019"/>
  <unicode hex="02BC"/>
  <outline>
    <contour>
      <point x="123" y="1475" type="line"/>
      <point x="322" y="1475" type="line"/>
      <point x="154" y="1010" type="line"/>
      <point x="63" y="1010" type="line"/>
    </contour>
  </outline>
</glyph>
<glyph name="quotesinglbase" format="1">
  <advance width="368.64"/>
  <unicode hex="201A"/>
  <outline>
    <contour>
      <point x="109" y="240" type="line"/>
      <point x="307" y="240" type="line"/>
      <point x="141" y="-225" type="line"/>
      <point x="51" y="-225" type="line"/>
    </contour>
  </outline>
</glyph>
<glyph name="quotedblleft" format="1">
  <advance width="671.744"/>
  <unicode hex="201C"/>
  <outline>
    <contour>
      <point x="244" y="1475" type="line"/>
      <point x="301" y="1010" type="line"/>
      <point x="215" y="1010" type="line"/>
      <point x="47" y="1475" type="line"/>
    </contour>
    <contour>
      <point x="549" y="1475" type="line"/>
      <point x="608" y="1010" type="line"/>
      <point x="522" y="1010" type="line"/>
      <point x="354" y="1475" type="line"/>
    </contour>
  </outline>
</glyph>
<glyph name="dagger" format="1">
  <advance width="745.472"/>
  <unicode hex="2020"/>
  <outline>
    <contour>
      <point x="698" y="1098" type="line"/>
      <point x="698" y="928" type="line"/>
      <point x="424" y="977" type="line"/>
      <point x="469" y="702" type="line"/>
      <point x="408" y="0" type="line"/>
      <point x="338" y="0" type="line"/>
      <point x="274" y="702" type="line"/>
      <point x="322" y="977" type="line"/>
      <point x="45" y="928" type="line"/>
      <point x="45" y="1098" type="line"/>
      <point x="322" y="1047" type="line"/>
      <point x="274" y="1475" type="line"/>
      <point x="469" y="1475" type="line"/>
      <point x="424" y="1047" type="line"/>
    </contour>
  </outline>
</glyph>
<glyph name="daggerdbl" format="1">
  <advance width="784.384"/>
  <unicode hex="2021"/>
  <outline>
    <contour>
      <point x="717" y="506" type="line"/>
      <point x="717" y="336" type="line"/>
      <point x="440" y="387" type="line"/>
      <point x="489" y="0" type="line"/>
      <point x="293" y="0" type="line"/>
      <point x="342" y="387" type="line"/>
      <point x="66" y="336" type="line"/>
      <point x="66" y="506" type="line"/>
      <point x="342" y="457" type="line"/>
      <point x="297" y="737" type="line"/>
      <point x="342" y="1018" type="line"/>
      <point x="66" y="969" type="line"/>
      <point x="66" y="1139" type="line"/>
      <point x="342" y="1087" type="line"/>
      <point x="293" y="1475" type="line"/>
      <point x="489" y="1475" type="line"/>
      <point x="440" y="1087" type="line"/>
      <point x="717" y="1139" type="line"/>
      <point x="717" y="969" type="line"/>
      <point x="440" y="1018" type="line"/>
      <point x="485" y="737" type="line"/>
      <point x="440" y="457" type="line"/>
    </contour>
  </outline>
</glyph>
<glyph name="fraction" format="1">
  <advance width="630.784"/>
  <unicode hex="2044"/>
  <outline>
    <contour>
      <point x="545" y="1505" type="line"/>
      <point x="711" y="1505" type="line"/>
      <point x="88" y="-31" type="line"/>
      <point x="-78" y="-31" type="line"/>
    </contour>
  </outline>
</glyph>
<glyph name="Euro" format="1">
  <advance width="948.224"/>
  <unicode hex="20AC"/>
  <outline>
    <contour>
      <point x="750" y="430" type="qcurve"/>
      <point x="905" y="354" type="line"/>
      <point x="863.955223881" y="189.074626866"/>
      <point x="684.567164179" y="-25.0"/>
      <point x="498" y="-25" type="qcurve" smooth="yes"/>
      <point x="300.23880597" y="-25.0"/>
      <point x="70.0" y="322.447761194"/>
      <point x="70" y="662" type="qcurve" smooth="yes"/>
      <point x="70" y="811" type="line" smooth="yes"/>
      <point x="70.0" y="1150.55223881"/>
      <point x="302.985074627" y="1499.0"/>
      <point x="500" y="1499" type="qcurve" smooth="yes"/>
      <point x="676.865671642" y="1499.0"/>
      <point x="855.955223881" y="1299.95522388"/>
      <point x="897" y="1141" type="qcurve"/>
      <point x="741" y="1063" type="line"/>
      <point x="707.417910448" y="1192.85074627"/>
      <point x="600.776119403" y="1341.0"/>
      <point x="506" y="1341" type="qcurve" smooth="yes"/>
      <point x="397.044776119" y="1341.0"/>
      <point x="279.701492537" y="1113.58208955"/>
      <point x="270" y="930" type="qcurve"/>
      <point x="639" y="930" type="line"/>
      <point x="639" y="815" type="line"/>
      <point x="268" y="815" type="line"/>
      <point x="268" y="639" type="line"/>
      <point x="639" y="639" type="line"/>
      <point x="639" y="524" type="line"/>
      <point x="272" y="524" type="line"/>
      <point x="283.194029851" y="350.119402985"/>
      <point x="401.074626866" y="133.0"/>
      <point x="516" y="133" type="qcurve" smooth="yes"/>
      <point x="606.298507463" y="133.0"/>
      <point x="714.179104478" y="286.71641791"/>
    </contour>
  </outline>
</glyph>
<glyph name="uni2117" format="1">
  <advance width="1343.488"/>
  <unicode hex="2117"/>
  <outline>
    <contour>
      <point x="674" y="1499" type="qcurve" smooth="yes"/>
      <point x="936.686567164" y="1499.0"/>
      <point x="1280.0" y="1064.6119403"/>
      <point x="1280" y="737" type="qcurve" smooth="yes"/>
      <point x="1280.0" y="411.626865672"/>
      <point x="936.179104478" y="-25.0"/>
      <point x="672" y="-25" type="qcurve" smooth="yes"/>
      <point x="408.567164179" y="-25.0"/>
      <point x="66.0" y="410.134328358"/>
      <point x="66" y="737" type="qcurve" smooth="yes"/>
      <point x="66.0" y="1064.6119403"/>
      <point x="409.074626866" y="1499.0"/>
    </contour>
    <contour>
      <point x="674" y="37" type="qcurve" smooth="yes"/>
      <point x="915.044776119" y="37.0"/>
      <point x="1212.0" y="439.23880597"/>
      <point x="1212" y="737" type="qcurve" smooth="yes"/>
      <point x="1212.0" y="1034.01492537"/>
      <point x="913.044776119" y="1438.0"/>
      <point x="672" y="1438" type="qcurve" smooth="yes"/>
      <point x="430.208955224" y="1438.0"/>
      <point x="133.0" y="1035.50746269"/>
      <point x="133" y="737" type="qcurve" smooth="yes"/>
      <point x="133.0" y="440.731343284"/>
      <point x="430.71641791" y="37.0"/>
    </contour>
    <contour>
      <point x="684" y="1165" type="line" smooth="yes"/>
      <point x="812.358208955" y="1165.0"/>
      <point x="954.0" y="1034.37313433"/>
      <point x="954" y="909" type="qcurve" smooth="yes"/>
      <point x="954.0" y="779.149253731"/>
      <point x="813.850746269" y="641.0"/>
      <point x="684" y="641" type="qcurve" smooth="yes"/>
      <point x="629" y="641" type="line"/>
      <point x="629" y="319" type="line"/>
      <point x="489" y="319" type="line"/>
      <point x="489" y="1165" type="line"/>
    </contour>
    <contour>
      <point x="688" y="752" type="line" smooth="yes"/>
      <point x="753.671641791" y="752.0"/>
      <point x="819.0" y="830.373134328"/>
      <point x="819" y="905" type="qcurve" smooth="yes"/>
      <point x="819.0" y="978.880597015"/>
      <point x="751.671641791" y="1057.0"/>
      <point x="686" y="1057" type="qcurve" smooth="yes"/>
      <point x="629" y="1057" type="line"/>
      <point x="629" y="752" type="line"/>
    </contour>
  </outline>
</glyph>
<glyph name="trademark" format="1">
  <advance width="1128.448"/>
  <unicode hex="2122"/>
  <outline>
    <contour>
      <point x="1061" y="1475" type="line"/>
      <point x="1061" y="883" type="line"/>
      <point x="954" y="883" type="line"/>
      <point x="954" y="1343" type="line"/>
      <point x="950" y="1343" type="line"/>
      <point x="840" y="883" type="line"/>
      <point x="721" y="883" type="line"/>
      <point x="610" y="1343" type="line"/>
      <point x="606" y="1343" type="line"/>
      <point x="606" y="883" type="line"/>
      <point x="508" y="883" type="line"/>
      <point x="508" y="1475" type="line"/>
      <point x="678" y="1475" type="line"/>
      <point x="784" y="1024" type="line"/>
      <point x="788" y="1024" type="line"/>
      <point x="893" y="1475" type="line"/>
    </contour>
    <contour>
      <point x="434" y="1475" type="line"/>
      <point x="434" y="1380" type="line"/>
      <point x="293" y="1380" type="line"/>
      <point x="293" y="883" type="line"/>
      <point x="180" y="883" type="line"/>
      <point x="180" y="1380" type="line"/>
      <point x="41" y="1380" type="line"/>
      <point x="41" y="1475" type="line"/>
    </contour>
  </outline>
</glyph>
<glyph name="apple" format="1">
  <advance width="1024.0"/>
  <unicode hex="F8FF"/>
  <outline>
    <contour>
      <point x="575" y="440" type="line"/>
      <point x="952" y="385" type="line"/>
      <point x="887" y="188" type="line"/>
      <point x="549" y="373" type="line"/>
      <point x="616" y="0" type="line"/>
      <point x="408" y="0" type="line"/>
      <point x="475" y="373" type="line"/>
      <point x="137" y="188" type="line"/>
      <point x="72" y="385" type="line"/>
      <point x="449" y="440" type="line"/>
      <point x="154" y="731" type="line"/>
      <point x="154" y="743" type="line"/>
      <point x="449" y="1034" type="line"/>
      <point x="72" y="1090" type="line"/>
      <point x="137" y="1286" type="line"/>
      <point x="475" y="1102" type="line"/>
      <point x="408" y="1475" type="line"/>
      <point x="616" y="1475" type="line"/>
      <point x="549" y="1102" type="line"/>
      <point x="887" y="1286" type="line"/>
      <point x="952" y="1090" type="line"/>
      <point x="575" y="1034" type="line"/>
      <point x="870" y="743" type="line"/>
      <point x="870" y="731" type="line"/>
    </contour>
    <contour>
      <point x="512" y="463" type="line"/>
      <point x="682" y="737" type="line"/>
      <point x="512" y="1012" type="line"/>
      <point x="342" y="737" type="line"/>
    </contour>
  </outline>
</glyph>
<glyph name="fi" format="1">
  <advance width="970.752"/>
  <unicode hex="FB01"/>
  <outline>
    <contour>
      <point x="584" y="1534" type="qcurve"/>
      <point x="584" y="1391" type="line"/>
      <point x="560.865671642" y="1404.43283582"/>
      <point x="514.582089552" y="1417.0"/>
      <point x="481" y="1417" type="qcurve" smooth="yes"/>
      <point x="429.507462687" y="1417.0"/>
      <point x="367.0" y="1350.11940299"/>
      <point x="367" y="1274" type="qcurve" smooth="yes"/>
      <point x="367" y="1067" type="line"/>
      <point x="555" y="1067" type="line"/>
      <point x="555" y="930" type="line"/>
      <point x="367" y="930" type="line"/>
      <point x="367" y="0" type="line"/>
      <point x="172" y="0" type="line"/>
      <point x="172" y="930" type="line"/>
      <point x="16" y="930" type="line"/>
      <point x="16" y="1067" type="line"/>
      <point x="172" y="1067" type="line"/>
      <point x="172" y="1286" type="line" smooth="yes"/>
      <point x="172.0" y="1418.8358209"/>
      <point x="308.089552239" y="1554.0"/>
      <point x="426" y="1554" type="qcurve" smooth="yes"/>
      <point x="482.71641791" y="1554.0"/>
      <point x="553.402985075" y="1544.44776119"/>
    </contour>
    <contour>
      <point x="868" y="1073" type="line"/>
      <point x="868" y="0" type="line"/>
      <point x="670" y="0" type="line"/>
      <point x="670" y="1073" type="line"/>
    </contour>
    <contour>
      <point x="874" y="1475" type="line"/>
      <point x="874" y="1282" type="line"/>
      <point x="662" y="1282" type="line"/>
      <point x="662" y="1475" type="line"/>
    </contour>
  </outline>
</glyph>
<glyph name="bullet" format="1">
  <advance width="659.456"/>
  <outline>
    <contour>
      <point x="330" y="1010" type="qcurve" smooth="yes"/>
      <point x="433.731343284" y="1010.0"/>
      <point x="575.0" y="866.23880597"/>
      <point x="575" y="764" type="qcurve" smooth="yes"/>
      <point x="575.0" y="661.76119403"/>
      <point x="433.731343284" y="518.0"/>
      <point x="330" y="518" type="qcurve" smooth="yes"/>
      <point x="227.76119403" y="518.0"/>
      <point x="84.0" y="661.76119403"/>
      <point x="84" y="764" type="qcurve" smooth="yes"/>
      <point x="84.0" y="866.23880597"/>
      <point x="227.76119403" y="1010.0"/>
    </contour>
  </outline>
</glyph>
<glyph name="endash.uc" format="1">
  <advance width="970.752"/>
  <outline>
    <contour>
      <point x="905" y="809" type="line"/>
      <point x="905" y="641" type="line"/>
      <point x="63" y="641" type="line"/>
      <point x="63" y="809" type="line"/>
    </contour>
  </outline>
</glyph>
<glyph name="macron" format="1">
  <advance width="806.912"/>
  <outline>
    <contour>
      <point x="639" y="1378" type="line"/>
      <point x="639" y="1257" type="line"/>
      <point x="168" y="1257" type="line"/>
      <point x="168" y="1378" type="line"/>
    </contour>
  </outline>
</glyph>
<glyph name="registered" format="1">
  <advance width="741.376"/>
  <outline>
    <contour>
      <point x="442" y="1110" type="qcurve"/>
      <point x="532" y="934" type="line"/>
      <point x="436" y="934" type="line"/>
      <point x="358" y="1094" type="line"/>
      <point x="334" y="1094" type="line"/>
      <point x="334" y="934" type="line"/>
      <point x="250" y="934" type="line"/>
      <point x="250" y="1341" type="line"/>
      <point x="373" y="1341" type="line" smooth="yes"/>
      <point x="434.194029851" y="1341.0"/>
      <point x="512.0" y="1282.19402985"/>
      <point x="512" y="1221" type="qcurve" smooth="yes"/>
      <point x="512.0" y="1179.20895522"/>
      <point x="472.597014925" y="1123.43283582"/>
    </contour>
    <contour>
      <point x="371" y="1487" type="qcurve" smooth="yes"/>
      <point x="508.313432836" y="1487.0"/>
      <point x="692.0" y="1281.49253731"/>
      <point x="692" y="1130" type="qcurve" smooth="yes"/>
      <point x="692.0" y="979.253731343"/>
      <point x="508.313432836" y="774.0"/>
      <point x="371" y="774" type="qcurve" smooth="yes"/>
      <point x="232.940298507" y="774.0"/>
      <point x="49.0" y="977.253731343"/>
      <point x="49" y="1128" type="qcurve" smooth="yes"/>
      <point x="49.0" y="1280.98507463"/>
      <point x="232.940298507" y="1487.0"/>
    </contour>
    <contour>
      <point x="371" y="811" type="qcurve" smooth="yes"/>
      <point x="494.880597015" y="811.0"/>
      <point x="651.0" y="995.164179104"/>
      <point x="651" y="1128" type="qcurve" smooth="yes"/>
      <point x="651.0" y="1263.07462687"/>
      <point x="493.388059701" y="1448.0"/>
      <point x="371" y="1448" type="qcurve" smooth="yes"/>
      <point x="247.119402985" y="1448.0"/>
      <point x="90.0" y="1263.58208955"/>
      <point x="90" y="1130" type="qcurve" smooth="yes"/>
      <point x="90.0" y="997.164179104"/>
      <point x="248.611940299" y="811.0"/>
    </contour>
    <contour>
      <point x="369" y="1155" type="line" smooth="yes"/>
      <point x="398.104477612" y="1155.0"/>
      <point x="428.0" y="1189.89552239"/>
      <point x="428" y="1219" type="qcurve" smooth="yes"/>
      <point x="428.0" y="1245.86567164"/>
      <point x="397.597014925" y="1276.0"/>
      <point x="367" y="1276" type="qcurve" smooth="yes"/>
      <point x="334" y="1276" type="line"/>
      <point x="334" y="1155" type="line"/>
    </contour>
  </outline>
</glyph>
